<svg width="162" height="58" viewBox="0 0 162 58" fill="none" xmlns="http://www.w3.org/2000/svg">
<path fill-rule="evenodd" clip-rule="evenodd" d="M144.06 15.31C142.99 15.31 142.54 16.28 142.46 16.99H145.48C145.49 16.35 145.21 15.31 144.06 15.31ZM76.75 19.07C76.75 19.74 77.19 20.05 77.73 20.05C78.43 20.05 78.93 19.6 79.1 19.11C79.14 18.98 79.14 18.86 79.14 18.73V17.79C77.92 17.77 76.74 18.03 76.74 19.07H76.75ZM110.05 15.38C108.83 15.38 108.33 16.58 108.33 17.72C108.33 19.04 109 20.04 110.03 20.04C111.03 20.04 111.71 19.08 111.71 17.69C111.71 16.62 111.23 15.39 110.05 15.39V15.38ZM98.42 15.31C97.36 15.31 96.9 16.28 96.83 16.99H99.85C99.85 16.35 99.58 15.31 98.42 15.31ZM85.97 15.48C85.27 15.48 84.62 15.98 84.43 16.75C84.4 16.87 84.38 17.03 84.38 17.2V18.3C84.3747 18.5108 84.4116 18.7206 84.4886 18.9169C84.5656 19.1133 84.6811 19.2922 84.8284 19.4432C84.9756 19.5942 85.1516 19.7141 85.346 19.796C85.5403 19.8779 85.7491 19.9201 85.96 19.92C87.04 19.92 87.7 19.07 87.7 17.68C87.7 16.47 87.12 15.48 85.97 15.48ZM147.07 37.86H138.2C138.181 38.4241 138.287 38.9854 138.51 39.504C138.733 40.0225 139.068 40.4855 139.49 40.86C140.23 41.48 141.19 41.79 142.39 41.79C143.7 41.79 144.89 41.59 145.97 41.16L146.44 43.22C145.18 43.77 143.69 44.03 141.97 44.03C139.91 44.03 138.29 43.43 137.12 42.22C136.515 41.5634 136.047 40.7928 135.743 39.9532C135.439 39.1136 135.305 38.2218 135.35 37.33C135.35 35.33 135.9 33.66 136.99 32.32C137.546 31.6253 138.257 31.0707 139.067 30.7008C139.876 30.3309 140.761 30.1559 141.65 30.19C143.57 30.19 145.02 30.89 146 32.32C146.818 33.5646 147.23 35.0318 147.18 36.52C147.18 37.04 147.14 37.49 147.07 37.86ZM134.87 17.03V21.13H133.14V11.15H134.87V15.21H134.9C135.1 14.89 135.4 14.62 135.75 14.44C136.1 14.24 136.51 14.13 136.95 14.13C138.12 14.13 139.35 14.9 139.35 17.1V21.14H137.61V17.28C137.61 16.3 137.24 15.54 136.29 15.54C135.61 15.54 135.13 15.99 134.94 16.51C134.88 16.66 134.87 16.84 134.87 17.03ZM134.42 33.09C134.12 33.04 133.82 33.01 133.49 33.01C133.022 32.9892 132.556 33.0863 132.134 33.2925C131.713 33.4987 131.351 33.8073 131.08 34.19C130.563 34.9632 130.303 35.8804 130.34 36.81V43.79H127.38V34.67C127.38 33.15 127.36 31.75 127.31 30.49H129.88L129.98 33.03H130.07C130.37 32.16 130.87 31.46 131.55 30.93C132.165 30.4721 132.913 30.2264 133.68 30.23C133.96 30.23 134.2 30.23 134.42 30.27V33.09ZM126.83 14.29H127.8V13L129.5 12.52V14.28H131.15V15.58H129.5V18.6C129.5 19.45 129.73 19.87 130.39 19.87C130.69 19.87 130.87 19.85 131.07 19.8L131.09 21.1C130.84 21.2 130.38 21.3 129.84 21.3C129.19 21.3 128.67 21.08 128.35 20.73C127.97 20.33 127.8 19.7 127.8 18.8V15.58H126.83V14.28V14.29ZM123.78 42.07C123.162 42.7414 122.406 43.27 121.563 43.6189C120.72 43.9678 119.811 44.1286 118.9 44.09C118.027 44.1288 117.156 43.9751 116.349 43.6399C115.542 43.3046 114.819 42.796 114.23 42.15C113.053 40.795 112.435 39.0436 112.5 37.25C112.5 35.19 113.1 33.5 114.29 32.19C114.902 31.5312 115.65 31.0138 116.483 30.6735C117.315 30.3333 118.212 30.1786 119.11 30.22C121.08 30.22 122.64 30.86 123.83 32.16C124.996 33.5078 125.604 35.2495 125.53 37.03C125.603 38.8706 124.978 40.671 123.78 42.07ZM109.98 21.29C108.05 21.29 106.55 19.97 106.55 17.76C106.55 15.51 108.02 14.13 110.09 14.13C112.13 14.13 113.49 15.56 113.49 17.65C113.49 20.17 111.72 21.29 109.98 21.29ZM111.65 32.7H108.38V39.17C108.38 40.81 108.96 41.62 110.11 41.62C110.64 41.62 111.08 41.59 111.43 41.5L111.51 43.73C110.93 43.95 110.16 44.06 109.21 44.06C108.706 44.0896 108.201 44.0103 107.73 43.8274C107.258 43.6445 106.832 43.3623 106.48 43C105.81 42.29 105.48 41.1 105.48 39.41V32.71H103.54V30.49H105.49V28.05L108.39 27.18V30.48H111.65V32.7ZM101.23 42.45C100.02 43.53 98.35 44.06 96.2 44.06C94.5298 44.138 92.8719 43.7392 91.42 42.91L92.11 40.45C93.3992 41.213 94.8719 41.6106 96.37 41.6C97.49 41.6 98.35 41.35 98.97 40.85C99.59 40.35 99.9 39.68 99.9 38.83C99.9 38.09 99.64 37.46 99.14 36.95C98.3952 36.3085 97.5276 35.8253 96.59 35.53C93.36 34.33 91.75 32.56 91.75 30.25C91.75 28.73 92.31 27.49 93.45 26.52C94.7411 25.5017 96.3578 24.9865 98 25.07C99.68 25.07 101.07 25.37 102.19 25.94L101.44 28.35C100.35 27.7731 99.1327 27.4807 97.9 27.5C96.86 27.5 96.04 27.77 95.45 28.27C94.96 28.73 94.72 29.29 94.72 29.94C94.72 30.67 95 31.27 95.56 31.75C96.06 32.19 96.96 32.66 98.24 33.17C99.5701 33.6346 100.772 34.4053 101.75 35.42C102.508 36.3102 102.908 37.4512 102.87 38.62C102.87 40.19 102.32 41.47 101.24 42.45H101.23ZM86.35 21.29C85.46 21.29 84.67 20.95 84.18 20.11H84.15L84.07 21.14H82.59C82.62 20.67 82.65 19.91 82.65 19.21V11.15H84.38V15.23H84.4C84.6394 14.8712 84.9682 14.581 85.354 14.3881C85.7398 14.1951 86.1693 14.1062 86.6 14.13C88.27 14.13 89.47 15.53 89.46 17.6C89.46 20.07 87.9 21.3 86.35 21.3V21.29ZM84.32 42.35C83.7988 42.9139 83.1638 43.3606 82.457 43.6606C81.7502 43.9606 80.9877 44.107 80.22 44.09C78.45 44.09 77.19 43.46 76.42 42.2V49.19H73.46V34.85C73.46 33.43 73.43 31.97 73.36 30.48H75.95L76.12 32.58H76.17C76.6339 31.8156 77.2965 31.1914 78.0872 30.7741C78.878 30.3567 79.7672 30.1617 80.66 30.21C82.23 30.21 83.54 30.83 84.59 32.07C85.6899 33.4591 86.2478 35.2004 86.16 36.97C86.16 39.24 85.55 41.02 84.32 42.34V42.35ZM71.05 21.14H72.78V11.14H71.05V21.14ZM69.7 42.34C69.1797 42.9057 68.5451 43.3543 67.8382 43.656C67.1314 43.9578 66.3684 44.1057 65.6 44.09C63.84 44.09 62.57 43.46 61.8 42.2V49.19H58.85V34.85C58.85 33.43 58.81 31.97 58.74 30.48H61.34L61.5 32.58H61.55C62.0147 31.8141 62.6789 31.1889 63.4716 30.7714C64.2642 30.3539 65.1555 30.1599 66.05 30.21C67.61 30.21 68.92 30.83 69.98 32.07C71.0766 33.4608 71.6341 35.2009 71.55 36.97C71.55 39.24 70.94 41.02 69.7 42.34ZM58.13 19.25C58.13 17.53 59.66 16.65 62.19 16.66V16.55C62.19 16.1 62.01 15.35 60.8 15.35C60.12 15.35 59.42 15.56 58.96 15.86L58.62 14.73C59.12 14.43 60.02 14.13 61.1 14.13C63.29 14.13 63.92 15.53 63.92 17.03V19.49C63.92 20.11 63.95 20.71 64.04 21.14H62.47L62.35 20.38H62.31C62.0648 20.6781 61.754 20.9154 61.4018 21.0733C61.0496 21.2311 60.6656 21.3053 60.28 21.29C58.9 21.29 58.13 20.29 58.13 19.25ZM54.56 21.14H52.86L50.31 14.28H52.19L53.29 17.76C53.49 18.36 53.63 18.91 53.76 19.48H53.81C53.93 18.91 54.09 18.38 54.27 17.76L55.37 14.28H57.18L54.56 21.14ZM53.89 43.79L52.17 38.38H46.17L44.53 43.79H41.47L47.4 25.35H51.07L57.04 43.8H53.9L53.89 43.79ZM33 43.09C33 43.8936 32.6808 44.6643 32.1125 45.2326C31.5443 45.8008 30.7736 46.12 29.97 46.12H16.97C16.1681 46.12 15.3989 45.8022 14.831 45.2361C14.263 44.67 13.9426 43.9019 13.94 43.1V14.22C13.9426 13.4155 14.2641 12.6448 14.8339 12.0769C15.4037 11.5089 16.1755 11.19 16.98 11.19H29.98C30.7811 11.1953 31.5477 11.5165 32.1132 12.0839C32.6787 12.6513 32.9974 13.4189 33 14.22V43.1V43.09ZM44.53 11.65H46.73L49.82 21.14H47.95L47.09 18.44H44.09L43.27 21.14H41.5L44.53 11.65ZM66.6 21.15H68.33V14.29H66.6V21.15ZM67.47 11.44C68.07 11.44 68.43 11.84 68.44 12.38C68.44 12.88 68.06 13.31 67.46 13.31C67.335 13.3155 67.2102 13.2954 67.0933 13.2509C66.9763 13.2065 66.8697 13.1387 66.7798 13.0517C66.6899 12.9646 66.6188 12.8602 66.5707 12.7447C66.5226 12.6292 66.4985 12.5051 66.5 12.38C66.5 11.85 66.9 11.44 67.47 11.44ZM77.7 15.35C77.03 15.35 76.33 15.56 75.86 15.86L75.52 14.73C76.03 14.43 76.92 14.13 78 14.13C80.2 14.13 80.83 15.53 80.83 17.03V19.49C80.83 20.11 80.86 20.71 80.94 21.14H79.38L79.25 20.38H79.21C78.9659 20.6767 78.6566 20.9132 78.3063 21.071C77.956 21.2288 77.574 21.3038 77.19 21.29C75.81 21.29 75.03 20.29 75.03 19.25C75.03 17.53 76.56 16.65 79.1 16.66V16.55C79.1 16.1 78.91 15.35 77.7 15.35ZM91.43 21.14H93.16V11.14H91.43V21.14ZM98.53 14.13C100.75 14.13 101.48 15.96 101.48 17.46C101.48 17.79 101.45 18.04 101.42 18.2H96.83C96.88 19.43 97.83 19.97 98.94 19.97C99.74 19.97 100.31 19.84 100.84 19.66L101.1 20.84C100.5 21.09 99.69 21.28 98.7 21.28C96.48 21.28 95.17 19.91 95.17 17.82C95.17 15.92 96.33 14.12 98.52 14.12L98.53 14.13ZM116.69 14.28L116.78 15.31H116.82C117.052 14.9385 117.377 14.6341 117.763 14.4271C118.149 14.2201 118.582 14.1177 119.02 14.13C120.22 14.13 121.45 14.9 121.45 17.07V21.14H119.72V17.27C119.72 16.28 119.35 15.54 118.42 15.54C117.72 15.54 117.24 16.03 117.06 16.54C117 16.69 116.98 16.9 116.98 17.1V21.14H115.25V16.32C115.25 15.54 115.22 14.87 115.19 14.28H116.69ZM144.16 14.13C146.38 14.13 147.11 15.96 147.11 17.46C147.11 17.79 147.08 18.04 147.05 18.2H142.47C142.51 19.43 143.47 19.97 144.57 19.97C145.38 19.97 145.94 19.84 146.47 19.66L146.73 20.84C146.14 21.09 145.33 21.28 144.33 21.28C142.12 21.28 140.81 19.91 140.81 17.82C140.81 15.92 141.96 14.12 144.16 14.12V14.13ZM46.06 14.8C45.88 14.23 45.72 13.58 45.58 13.03H45.56C45.41 13.58 45.26 14.24 45.1 14.8L44.37 17.14H46.81L46.06 14.8ZM62.19 19.11C62.23 18.98 62.23 18.86 62.23 18.73V17.79C61.01 17.77 59.84 18.03 59.84 19.07C59.84 19.74 60.28 20.05 60.83 20.05C61.53 20.05 62.03 19.6 62.19 19.11ZM141.43 32.24C140.46 32.24 139.68 32.65 139.07 33.44C138.567 34.1084 138.266 34.9062 138.2 35.74H144.36C144.395 34.9427 144.193 34.1528 143.78 33.47C143.535 33.073 143.187 32.7492 142.774 32.5328C142.36 32.3164 141.896 32.2153 141.43 32.24ZM49.16 27.81H49.11C48.91 28.59 48.63 29.75 48.23 31.28L46.69 36.1H51.65L50.09 31.28C49.92 30.78 49.61 29.63 49.16 27.81ZM79.7 32.57C78.97 32.57 78.32 32.81 77.72 33.29C77.1311 33.7752 76.7225 34.4445 76.56 35.19C76.46 35.57 76.42 35.86 76.42 36.1V38.32C76.42 39.29 76.72 40.1 77.31 40.77C77.9 41.43 78.67 41.77 79.61 41.77C80.74 41.77 81.61 41.34 82.22 40.48C82.85 39.62 83.16 38.49 83.16 37.08C83.16 35.79 82.86 34.72 82.28 33.88C81.992 33.4651 81.6055 33.1282 81.1552 32.8996C80.7049 32.6709 80.2049 32.5577 79.7 32.57ZM119 32.38C117.82 32.38 116.92 32.91 116.3 33.97C115.77 34.83 115.5 35.9 115.5 37.15C115.5 38.38 115.77 39.42 116.3 40.29C116.558 40.777 116.946 41.1826 117.421 41.4616C117.896 41.7407 118.439 41.8821 118.99 41.87C120.11 41.87 120.99 41.34 121.63 40.26C122.18 39.38 122.46 38.32 122.46 37.1C122.46 35.88 122.19 34.83 121.66 33.96C121.408 33.477 121.027 33.0735 120.559 32.7945C120.091 32.5155 119.555 32.372 119.01 32.38H119ZM65.08 32.57C64.36 32.57 63.7 32.81 63.1 33.29C62.5111 33.7752 62.1025 34.4445 61.94 35.19C61.84 35.57 61.8 35.86 61.8 36.1V38.32C61.8 39.29 62.1 40.1 62.7 40.77C63.28 41.43 64.06 41.77 65 41.77C66.11 41.77 66.99 41.34 67.6 40.48C68.23 39.62 68.53 38.49 68.53 37.08C68.53 35.79 68.25 34.72 67.66 33.88C67.372 33.4651 66.9855 33.1282 66.5352 32.8996C66.0849 32.6709 65.5849 32.5577 65.08 32.57ZM15.78 40.03H31.16V17.29H15.78V40.03ZM23.48 41.38C23.0865 41.4115 22.7194 41.59 22.4516 41.88C22.1839 42.1701 22.0352 42.5503 22.0352 42.945C22.0352 43.3397 22.1839 43.72 22.4516 44.01C22.7194 44.3 23.0865 44.4785 23.48 44.51C23.8735 44.4785 24.2406 44.3 24.5084 44.01C24.7761 43.72 24.9248 43.3397 24.9248 42.945C24.9248 42.5503 24.7761 42.1701 24.5084 41.88C24.2406 41.59 23.8735 41.4115 23.48 41.38ZM21.97 14.98H24.97C25.17 14.98 25.34 14.81 25.34 14.62C25.34 14.42 25.18 14.26 24.98 14.26H21.97C21.77 14.26 21.61 14.42 21.61 14.62C21.61 14.82 21.77 14.97 21.97 14.97V14.98Z" fill="#FB3B2D"/>
<path fill-rule="evenodd" clip-rule="evenodd" d="M7.72 2C6.20377 2.00264 4.7504 2.60613 3.67827 3.67827C2.60613 4.7504 2.00264 6.20377 2 7.72V49.59C2.00528 51.1045 2.60994 52.5553 3.68179 53.6253C4.75364 54.6953 6.2055 55.2974 7.72 55.3H153.4C154.914 55.2974 156.366 54.6953 157.438 53.6253C158.51 52.5553 159.115 51.1045 159.12 49.59V7.72C159.117 6.20377 158.514 4.7504 157.442 3.67827C156.37 2.60613 154.916 2.00264 153.4 2H7.72ZM153.4 57.3H7.72C5.67507 57.2974 3.7145 56.4845 2.26758 55.0395C0.82066 53.5944 0.00528919 51.6349 0 49.59L0 7.72C0.00264597 5.67334 0.81685 3.71127 2.26406 2.26406C3.71127 0.81685 5.67334 0.00264597 7.72 0H153.4C155.447 0.00264597 157.409 0.81685 158.856 2.26406C160.303 3.71127 161.117 5.67334 161.12 7.72V49.59C161.115 51.6349 160.299 53.5944 158.852 55.0395C157.406 56.4845 155.445 57.2974 153.4 57.3Z" fill="#FB3B2D"/>
</svg>
