<svg width="171" height="58" viewBox="0 0 171 58" fill="none" xmlns="http://www.w3.org/2000/svg">
<path fill-rule="evenodd" clip-rule="evenodd" d="M8.47 2C6.75405 2 5.10838 2.68166 3.89502 3.89502C2.68166 5.10838 2 6.75405 2 8.47V48.78C2 52.35 4.9 55.25 8.47 55.25H162.45C166.01 55.25 168.91 52.35 168.91 48.78V8.47C168.91 4.9 166.01 2 162.45 2H8.47ZM162.45 57.25H8.47C6.22443 57.2474 4.07159 56.3541 2.48373 54.7663C0.895869 53.1784 0.00264652 51.0256 0 48.78V8.47C0 3.8 3.8 0 8.47 0H162.45C167.11 0 170.91 3.8 170.91 8.47V48.78C170.91 53.45 167.11 57.25 162.45 57.25Z" fill="#FB3B2D"/>
<path fill-rule="evenodd" clip-rule="evenodd" d="M55.16 14.71C54.9263 14.0607 54.726 13.3998 54.56 12.73H54.5C54.5 12.82 54.29 13.48 53.87 14.71H55.16ZM56.8 16.71H55.66C55.66 16.55 55.56 16.11 55.34 15.38H53.7C53.5459 15.8112 53.4354 16.2568 53.37 16.71H52.3C52.3 16.61 52.58 15.86 53.13 14.44C53.68 13.02 53.96 12.24 53.96 12.09H55.3C55.3 12.23 55.55 12.99 56.05 14.41C56.55 15.81 56.8 16.58 56.8 16.71ZM61.37 16.71H60.5C60.5 16.61 60.17 16.11 59.52 15.17C59.0435 14.5596 58.6532 13.8867 58.36 13.17H58.3C58.36 13.69 58.39 14.16 58.39 14.57C58.39 15.16 58.4 15.87 58.44 16.71H57.57C57.6399 15.1708 57.6399 13.6292 57.57 12.09H58.62C58.62 12.22 58.92 12.72 59.5 13.59C59.9341 14.1765 60.2935 14.8147 60.57 15.49H60.62C60.56 14.95 60.53 14.49 60.53 14.06C60.53 13.42 60.52 12.76 60.48 12.09H61.38C61.3132 13.6293 61.3132 15.1707 61.38 16.71H61.37ZM65.54 14.39C65.54 13.94 65.41 13.56 65.14 13.25C64.88 12.94 64.48 12.78 63.94 12.78L63.52 12.81C63.54 13.28 63.55 13.78 63.55 14.29C63.55 14.86 63.56 15.42 63.59 15.98C63.74 16.01 63.89 16.02 64.05 16.02C64.55 16.02 64.93 15.86 65.18 15.55C65.42 15.23 65.54 14.85 65.54 14.39ZM66.51 14.24C66.51 14.91 66.3 15.5 65.87 16C65.44 16.5 64.83 16.75 64.06 16.75C63.71 16.75 63.23 16.74 62.61 16.71C62.6714 15.1706 62.6714 13.6294 62.61 12.09H63.23C63.5135 12.0919 63.7969 12.0853 64.08 12.07C64.93 12.07 65.55 12.28 65.94 12.71C66.32 13.13 66.51 13.65 66.51 14.24ZM69.92 13.45C69.92 12.98 69.62 12.74 69.02 12.74C68.79 12.74 68.6 12.76 68.42 12.79C68.45 13.16 68.47 13.63 68.47 14.22L68.8 14.23C69.55 14.23 69.92 13.97 69.92 13.45ZM71.25 16.71H70.2C70.0531 16.1699 69.8416 15.6494 69.57 15.16C69.43 14.96 69.19 14.86 68.87 14.86H68.47C68.47 15.48 68.48 16.09 68.5 16.71H67.52C67.5832 15.1706 67.5832 13.6293 67.52 12.09H68.13C68.4868 12.0942 68.8436 12.0876 69.2 12.07C70.29 12.07 70.83 12.44 70.83 13.18C70.83 13.78 70.52 14.18 69.9 14.42V14.47C70.14 14.53 70.35 14.72 70.53 15.03C70.71 15.33 70.95 15.89 71.25 16.71ZM75.36 14.42C75.36 13.92 75.23 13.52 74.98 13.22C74.73 12.91 74.42 12.76 74.04 12.76C73.7 12.76 73.41 12.91 73.16 13.22C72.92 13.52 72.8 13.92 72.8 14.39C72.8 14.89 72.93 15.29 73.18 15.59C73.44 15.9 73.75 16.06 74.12 16.06C74.46 16.06 74.76 15.9 75 15.59C75.24 15.28 75.36 14.89 75.36 14.42ZM76.34 14.32C76.34 15.04 76.12 15.64 75.67 16.12C75.23 16.6 74.67 16.84 74.02 16.84C73.4 16.84 72.88 16.62 72.46 16.18C72.03 15.74 71.82 15.18 71.82 14.51C71.82 13.78 72.05 13.18 72.49 12.71C72.94 12.22 73.49 11.99 74.14 11.99C74.76 11.99 75.29 12.2 75.71 12.64C76.13 13.08 76.34 13.64 76.34 14.32ZM78.34 16.71H77.34C77.4018 15.1706 77.4018 13.6294 77.34 12.09H78.34C78.2771 13.6293 78.2771 15.1706 78.34 16.71ZM82.52 14.39C82.52 13.94 82.39 13.56 82.12 13.25C81.86 12.94 81.45 12.78 80.91 12.78L80.49 12.81C80.51 13.28 80.53 13.78 80.53 14.29C80.53 14.86 80.53 15.42 80.56 15.98C80.71 16.01 80.86 16.02 81.02 16.02C81.53 16.02 81.91 15.86 82.15 15.55C82.4 15.23 82.52 14.85 82.52 14.39ZM83.49 14.24C83.49 14.91 83.27 15.5 82.84 16C82.41 16.5 81.81 16.75 81.04 16.75C80.68 16.75 80.2 16.74 79.58 16.71C79.6434 15.1706 79.6434 13.6293 79.58 12.09H80.21C80.4901 12.0918 80.7703 12.0851 81.05 12.07C81.91 12.07 82.53 12.28 82.91 12.71C83.29 13.13 83.49 13.65 83.49 14.24ZM88.67 14.71C88.4363 14.0607 88.236 13.3998 88.07 12.73H88.01C88.01 12.82 87.8 13.48 87.38 14.71H88.67ZM90.31 16.71H89.17C89.17 16.55 89.07 16.11 88.85 15.38H87.21C87.0561 15.8113 86.9456 16.2568 86.88 16.71H85.81C85.81 16.61 86.09 15.86 86.64 14.44C87.19 13.02 87.47 12.24 87.47 12.09H88.81C88.81 12.23 89.06 12.99 89.56 14.41C90.06 15.81 90.31 16.58 90.31 16.71ZM93.54 13.5C93.54 12.99 93.2 12.74 92.52 12.74C92.36 12.74 92.18 12.76 91.99 12.79C92.02 13.24 92.03 13.74 92.03 14.31H92.23C93.1 14.31 93.53 14.04 93.53 13.5H93.54ZM94.44 13.3C94.44 13.87 94.24 14.28 93.82 14.55C93.2852 14.8805 92.6546 15.0214 92.03 14.95C92.03 15.4 92.05 15.98 92.07 16.71H91.07C91.1337 15.1706 91.1337 13.6293 91.07 12.09H91.69C92.0734 12.0938 92.4569 12.0872 92.84 12.07C93.29 12.07 93.67 12.17 93.98 12.37C94.29 12.57 94.45 12.89 94.45 13.3H94.44ZM97.79 13.5C97.79 12.99 97.45 12.74 96.78 12.74C96.61 12.74 96.43 12.76 96.25 12.79C96.27 13.24 96.29 13.74 96.29 14.31H96.49C97.35 14.31 97.79 14.04 97.79 13.5ZM98.7 13.3C98.7 13.87 98.5 14.28 98.07 14.55C97.538 14.8783 96.9113 15.0191 96.29 14.95C96.29 15.4 96.3 15.98 96.33 16.71H95.33C95.3937 15.1706 95.3937 13.6293 95.33 12.09H95.95C96.3334 12.0938 96.7169 12.0871 97.1 12.07C97.55 12.07 97.93 12.17 98.24 12.37C98.54 12.57 98.7 12.89 98.7 13.3ZM104.68 14.42C104.68 13.92 104.55 13.52 104.3 13.22C104.05 12.91 103.73 12.76 103.36 12.76C103.02 12.76 102.72 12.91 102.48 13.22C102.24 13.52 102.12 13.92 102.12 14.39C102.12 14.89 102.25 15.29 102.5 15.59C102.76 15.9 103.07 16.06 103.44 16.06C103.78 16.06 104.08 15.9 104.32 15.59C104.56 15.28 104.68 14.89 104.68 14.42ZM105.66 14.32C105.66 15.04 105.44 15.64 104.99 16.12C104.55 16.6 103.99 16.84 103.34 16.84C102.72 16.84 102.19 16.62 101.77 16.18C101.35 15.74 101.14 15.18 101.14 14.51C101.14 13.78 101.36 13.18 101.81 12.71C102.25 12.22 102.81 11.99 103.46 11.99C104.08 11.99 104.61 12.2 105.03 12.64C105.45 13.08 105.66 13.64 105.66 14.32ZM110.47 16.71H109.59C109.59 16.61 109.26 16.11 108.61 15.17C108.133 14.5598 107.743 13.8868 107.45 13.17H107.39C107.45 13.69 107.49 14.16 107.49 14.57C107.49 15.16 107.49 15.87 107.53 16.71H106.66C106.73 15.1708 106.73 13.6292 106.66 12.09H107.71C107.71 12.22 108.01 12.72 108.59 13.59C109.024 14.1765 109.383 14.8147 109.66 15.49H109.71C109.66 14.95 109.63 14.49 109.63 14.06C109.63 13.42 109.61 12.76 109.58 12.09H110.47C110.403 13.6293 110.403 15.1707 110.47 16.71ZM68.62 31.51C68.62 33.8 67.94 35.63 66.58 36.99C65.8029 37.7971 64.8639 38.4308 63.8247 38.8495C62.7856 39.2683 61.6696 39.4627 60.55 39.42C59.4283 39.4401 58.3142 39.2314 57.2757 38.8067C56.2373 38.3821 55.2962 37.7503 54.51 36.95C53.6986 36.1585 53.0588 35.2084 52.6305 34.159C52.2021 33.1096 51.9943 31.9832 52.02 30.85C52.02 28.41 52.85 26.38 54.51 24.73C55.2971 23.9315 56.2385 23.3016 57.2769 22.8786C58.3153 22.4557 59.429 22.2486 60.55 22.27C61.72 22.27 62.85 22.5 63.92 22.96C64.9052 23.3604 65.7822 23.9874 66.48 24.79L65.04 26.25C64.4899 25.6014 63.7979 25.0881 63.0175 24.7499C62.2372 24.4118 61.3894 24.2578 60.54 24.3C58.82 24.3 57.33 24.9 56.07 26.12C55.4402 26.7318 54.9458 27.4688 54.6185 28.2835C54.2912 29.0983 54.1385 29.9726 54.17 30.85C54.17 32.8 54.8 34.37 56.07 35.59C56.6581 36.1762 57.3573 36.6391 58.1265 36.9516C58.8958 37.2641 59.7197 37.42 60.55 37.41C62.38 37.41 63.91 36.8 65.13 35.58C65.93 34.78 66.38 33.68 66.51 32.25H60.54V30.28H68.49C68.5668 30.6889 68.6069 31.1039 68.61 31.52L68.62 31.51ZM72.69 36.38C73.0186 36.7324 73.4165 37.0129 73.8588 37.204C74.3011 37.395 74.7782 37.4924 75.26 37.49C76.26 37.49 77.12 37.12 77.84 36.38C78.2119 35.9873 78.501 35.5237 78.69 35.0169C78.879 34.51 78.964 33.9704 78.94 33.43C78.94 32.21 78.57 31.23 77.84 30.49C77.5099 30.1368 77.1103 29.8559 76.6662 29.6648C76.2222 29.4738 75.7434 29.3768 75.26 29.38C74.27 29.38 73.41 29.75 72.69 30.48C72.3181 30.8727 72.029 31.3363 71.84 31.8431C71.651 32.3499 71.566 32.8896 71.59 33.43C71.59 34.66 71.96 35.63 72.69 36.38ZM71.12 29.16C71.6516 28.6013 72.2951 28.161 73.0085 27.8681C73.7219 27.5751 74.4892 27.4361 75.26 27.46C76.95 27.46 78.33 28.02 79.42 29.16C79.9579 29.73 80.378 30.4006 80.656 31.1334C80.934 31.8661 81.0645 32.6466 81.04 33.43C81.04 35.15 80.5 36.57 79.41 37.71C78.8773 38.27 78.2321 38.711 77.5169 39.004C76.8016 39.2969 76.0325 39.4353 75.26 39.41C74.4892 39.4339 73.7219 39.2948 73.0085 39.0019C72.2951 38.7089 71.6516 38.2687 71.12 37.71C70.579 37.1396 70.1565 36.4677 69.8767 35.7331C69.5969 34.9985 69.4655 34.2157 69.49 33.43C69.49 31.73 70.03 30.3 71.12 29.16ZM84.95 36.38C85.2797 36.7336 85.6793 37.0149 86.1234 37.206C86.5675 37.3971 87.0465 37.4938 87.53 37.49C88.53 37.49 89.38 37.12 90.11 36.38C90.4801 35.9864 90.7674 35.5225 90.9546 35.0157C91.1419 34.5089 91.2253 33.9697 91.2 33.43C91.2 32.21 90.83 31.23 90.1 30.49C89.7711 30.1381 89.373 29.8578 88.9308 29.6669C88.4886 29.4759 88.0117 29.3782 87.53 29.38C86.53 29.38 85.68 29.75 84.95 30.48C84.5798 30.8735 84.2926 31.3375 84.1054 31.8443C83.9181 32.3511 83.8347 32.8903 83.86 33.43C83.86 34.66 84.22 35.63 84.96 36.38H84.95ZM83.38 29.16C83.9127 28.6 84.5579 28.159 85.2731 27.866C85.9884 27.573 86.7575 27.4347 87.53 27.46C89.21 27.46 90.59 28.02 91.68 29.16C92.2197 29.7292 92.6416 30.3994 92.9213 31.1322C93.2011 31.865 93.3332 32.6459 93.31 33.43C93.31 35.15 92.76 36.57 91.68 37.71C91.1473 38.27 90.5021 38.711 89.7869 39.004C89.0716 39.2969 88.3025 39.4353 87.53 39.41C86.7575 39.4353 85.9884 39.2969 85.2731 39.004C84.5579 38.711 83.9127 38.27 83.38 37.71C82.839 37.1396 82.4165 36.4677 82.1367 35.7331C81.8569 34.9985 81.7255 34.2157 81.75 33.43C81.75 31.73 82.29 30.3 83.38 29.16ZM99.7 37.49C100.7 37.49 101.54 37.12 102.24 36.39C102.963 35.5791 103.337 34.5152 103.28 33.43C103.28 32.2 102.93 31.21 102.24 30.48C101.919 30.1268 101.526 29.846 101.089 29.6563C100.651 29.4666 100.177 29.3724 99.7 29.38C98.72 29.38 97.88 29.75 97.18 30.48C96.4535 31.2857 96.0759 32.3465 96.13 33.43C96.13 34.66 96.48 35.63 97.18 36.38C97.88 37.12 98.72 37.49 99.7 37.49ZM99.54 44.37C98.3741 44.4191 97.2267 44.066 96.29 43.37C95.5045 42.7743 94.8819 41.9901 94.48 41.09L96.4 40.29C96.62 40.89 97 41.41 97.58 41.82C98.15 42.24 98.81 42.44 99.54 42.44C100.7 42.44 101.62 42.09 102.28 41.4C102.95 40.7 103.28 39.76 103.28 38.57V37.49H103.18C102.82 38.04 102.3 38.5 101.63 38.87C100.64 39.3843 99.5059 39.5486 98.411 39.3361C97.3162 39.1237 96.3255 38.547 95.6 37.7C94.5383 36.5361 93.9716 35.0046 94.02 33.43C94.02 31.73 94.54 30.32 95.6 29.17C96.3265 28.3244 97.3172 27.7489 98.4116 27.5366C99.506 27.3242 100.64 27.4875 101.63 28C102.3 28.37 102.82 28.83 103.19 29.38H103.28V27.82H105.3V38.48C105.3 40.4 104.74 41.87 103.62 42.87C102.5 43.871 101.041 44.4075 99.54 44.37ZM107.29 39.05H109.4V22.64H107.3L107.29 39.05ZM119.39 32.08C119.318 31.3862 119.007 30.7392 118.51 30.25C117.97 29.67 117.16 29.38 116.09 29.38C115.31 29.38 114.64 29.62 114.06 30.11C113.47 30.6271 113.058 31.3161 112.88 32.08H119.39ZM116.37 39.42C114.67 39.42 113.29 38.85 112.23 37.72C111.152 36.5571 110.576 35.0151 110.63 33.43C110.63 31.8 111.15 30.39 112.18 29.21C112.667 28.6395 113.275 28.1852 113.96 27.8807C114.646 27.5761 115.39 27.4289 116.14 27.45C117.8 27.45 119.14 27.99 120.14 29.08C121.14 30.16 121.64 31.62 121.64 33.43L121.62 33.83H112.75C112.759 34.8344 113.165 35.7943 113.88 36.5C114.58 37.16 115.38 37.5 116.32 37.5C117.83 37.5 118.86 36.85 119.39 35.57L121.27 36.34C120.91 37.22 120.3 37.94 119.47 38.54C118.62 39.12 117.59 39.42 116.37 39.42ZM129.94 30.38H133.47C134.35 30.38 135.07 30.08 135.6 29.49C136.14 28.89 136.4 28.24 136.4 27.52C136.4 26.8 136.14 26.14 135.6 25.55C135.07 24.95 134.35 24.65 133.47 24.65H129.94V30.38ZM129.94 39.05H127.83V22.64H133.43C134.81 22.64 136.02 23.1 137.03 24.02C137.525 24.4568 137.918 24.9963 138.182 25.6008C138.446 26.2054 138.575 26.8604 138.56 27.52C138.56 28.92 138.05 30.09 137.03 31.02C136.052 31.9252 134.763 32.4193 133.43 32.4H129.93V39.05H129.94ZM139.94 39.05H142.04V22.64H139.94V39.05ZM147.82 37.49C148.69 37.49 149.48 37.17 150.19 36.52C150.524 36.2372 150.793 35.8849 150.978 35.4878C151.163 35.0906 151.259 34.658 151.26 34.22C150.66 33.72 149.76 33.48 148.58 33.48C147.55 33.48 146.78 33.7 146.26 34.14C146.021 34.3242 145.826 34.5603 145.691 34.8305C145.556 35.1007 145.484 35.3979 145.48 35.7C145.48 36.25 145.72 36.69 146.19 37.01C146.66 37.33 147.21 37.49 147.82 37.49ZM147.48 39.42C146.28 39.42 145.28 39.07 144.48 38.38C143.68 37.7 143.28 36.78 143.28 35.66C143.28 34.43 143.75 33.48 144.7 32.78C145.723 32.0629 146.951 31.6979 148.2 31.74C149.45 31.74 150.46 31.97 151.26 32.42V32.1C151.275 31.7275 151.206 31.3563 151.059 31.0137C150.912 30.6711 150.69 30.3658 150.41 30.12C149.831 29.619 149.085 29.3548 148.32 29.38C147.72 29.38 147.16 29.52 146.66 29.81C146.16 30.11 145.82 30.5 145.64 31.01L143.71 30.18C143.97 29.51 144.49 28.88 145.25 28.31C146.138 27.699 147.203 27.3969 148.28 27.45C149.586 27.4065 150.861 27.8563 151.85 28.71C152.333 29.1612 152.71 29.7131 152.956 30.3267C153.201 30.9402 153.308 31.6003 153.27 32.26V39.05H151.26V37.49H151.16C150.77 38.109 150.223 38.6137 149.575 38.9527C148.927 39.2917 148.201 39.453 147.47 39.42H147.48ZM157.86 44H155.68L158.29 38.34L153.66 27.82H155.96L159.3 35.89H159.35L162.6 27.82H164.9L157.86 44ZM12.68 30.56V14.85C12.68 14.2 12.8 13.62 13.26 13.13C13.44 12.94 13.56 12.89 13.78 13.11L24.38 23.9L31.26 30.87C31.48 31.09 31.5 31.21 31.26 31.44C25.6364 37.0297 20.0231 42.6297 14.42 48.24C14.08 48.58 13.84 48.54 13.51 48.29C13.2347 48.0787 13.0151 47.8034 12.8705 47.4879C12.7258 47.1725 12.6604 46.8265 12.68 46.48V37.15V30.56ZM14.7 12.52C15.13 12.52 15.43 12.64 15.72 12.81L37.26 24.87C37.59 25.05 37.59 25.16 37.33 25.41L32.54 30.17C32.37 30.35 32.26 30.45 32.04 30.21L14.87 12.75L14.69 12.52H14.7ZM16.3 48.1C21.52 42.83 26.74 37.55 31.94 32.28C32.26 31.96 32.41 32 32.7 32.3C34.024 33.6724 35.3607 35.0324 36.71 36.38C36.95 36.62 36.97 36.72 36.65 36.89L16.58 47.89C16.48 47.96 16.38 48.06 16.31 48.09L16.3 48.1ZM46.08 30.71C46.05 31.31 45.78 31.71 45.35 32.03C45.05 32.26 44.7 32.45 44.35 32.63L38.29 35.99C38.01 36.14 37.85 36.13 37.63 35.89C36.1903 34.4098 34.7403 32.9398 33.28 31.48C33.08 31.27 33.06 31.15 33.28 30.93C34.98 29.26 36.67 27.58 38.35 25.89C38.55 25.69 38.69 25.67 38.94 25.81L44.94 29.18C45.57 29.53 46.05 29.98 46.08 30.71Z" fill="#FB3B2D"/>
</svg>
