<?xml version="1.0" encoding="UTF-8"?>
<svg xmlns="http://www.w3.org/2000/svg" viewBox="0 0 337.95 446.58">
  <defs>
    <style>
      .cls-1 {
        isolation: isolate;
      }

      .cls-1, .cls-2, .cls-3 {
        fill: none;
      }

      .cls-4, .cls-5 {
        fill: #6771b7;
      }

      .cls-6 {
        fill: #ed7c7c;
      }

      .cls-7, .cls-8 {
        fill: #e3a382;
      }

      .cls-9, .cls-10 {
        fill: #fff;
      }

      .cls-11 {
        fill: #f0af46;
      }

      .cls-12 {
        fill: #825555;
      }

      .cls-13 {
        fill: #9e6b51;
      }

      .cls-14 {
        fill: #a02020;
      }

      .cls-15 {
        fill: #cbd177;
      }

      .cls-16 {
        fill: #d38967;
      }

      .cls-17 {
        fill: #d38c6c;
      }

      .cls-18 {
        fill: #c47657;
      }

      .cls-19 {
        fill: #c63838;
      }

      .cls-20 {
        fill: #d8932e;
      }

      .cls-21 {
        fill: #e35756;
      }

      .cls-22 {
        fill: #11224c;
      }

      .cls-23 {
        fill: #415099;
      }

      .cls-24 {
        fill: #956a69;
      }

      .cls-25 {
        fill: #895c43;
      }

      .cls-26 {
        fill: #65343b;
      }

      .cls-27 {
        fill: #2e3f7f;
      }

      .cls-28 {
        fill: #5e3c2b;
      }

      .cls-29, .cls-30 {
        fill: #838bdd;
      }

      .cls-8 {
        opacity: .17;
      }

      .cls-8, .cls-31, .cls-5 {
        mix-blend-mode: multiply;
      }

      .cls-31 {
        fill: #0a162d;
        opacity: .3;
      }

      .cls-5 {
        opacity: .43;
      }

      .cls-2 {
        stroke: #65343b;
      }

      .cls-2, .cls-3 {
        stroke-linecap: round;
        stroke-miterlimit: 10;
        stroke-width: 1.29px;
      }

      .cls-3 {
        stroke: #c86945;
      }

      .cls-30 {
        opacity: .31;
      }

      .cls-10 {
        opacity: .39;
      }
    </style>
  </defs>
  <g class="cls-1">
    <g id="OBJECTS">
      <g>
        <g>
          <g>
            <rect class="cls-27" x="27.25" y="35.26" width="283.44" height="314.64"/>
            <rect class="cls-22" x="40.03" y="39.62" width="259.94" height="291.43"/>
            <rect class="cls-6" y="22.08" width="337.95" height="17.55"/>
            <polygon class="cls-21" points="0 22.08 52.57 0 284.65 0 337.95 22.08 0 22.08"/>
            <path class="cls-31" d="m27.25,127.11s119.4-106.33,283.44,0V39.15H27.25v87.97Z"/>
          </g>
          <rect class="cls-29" x="6.02" y="327.08" width="325.91" height="49.35"/>
          <path class="cls-5" d="m91.24,327.08s-15.14,43.53-17.1,62.86c-1.96,19.33,6.18,26.19,35.44,36.97,29.25,10.78,113.77,20.58,123.94,19.6,10.18-.98,43.94-2.84,54.13-19.19,10.19-16.35-164.58-100.25-164.58-100.25h-31.84"/>
          <rect class="cls-4" x="6.02" y="358.89" width="325.91" height="17.54"/>
          <path class="cls-5" d="m6.02,376.43s163.93,48.06,325.91,0"/>
          <g>
            <path class="cls-16" d="m149.06,159.76c.06,2.01,4.42,29.1,4.42,29.1h21.03s27.17-22.35,25.73-23.44c-1.44-1.09-23.96-32.93-23.96-32.93l-27.21,27.26Z"/>
            <g>
              <path class="cls-21" d="m154.15,56.46s.26-3.8,3.25-4.16c2.99-.36,6.29,1.62,5.45,6.6,0,0-4.58-1.86-8.7-2.44Z"/>
              <path class="cls-25" d="m118.63,142.73c.14.56-2.47,12.47,4.44,12.61,6.91.14,8.99,7.2,13,.83,4.02-6.37-11.63-15.78-11.63-15.78l-5.82,2.34Z"/>
              <path class="cls-25" d="m194.51,120.57s5.12,6.53,1.66,7.5c-3.46.97.57,11.8-10.38,8.46-10.94-3.34,2.9-13.31,2.9-13.31l5.81-2.65Z"/>
              <path class="cls-16" d="m125.66,122.55c-1.51-.38-18.85-6.03-26.39,0-7.54,6.03-5.65,24.5,26.39,21.11,32.04-3.39,0-21.11,0-21.11Z"/>
              <path class="cls-7" d="m181.52,98.44s-9.18-23.87-41.63-19.59c-32.44,4.29-32.31,40.94-21.73,59.07,9.66,16.57,23.57,27.85,40.71,24.18,17.14-3.67,27.85-21.12,30-37.65,0,0,13.77-7.35,17.14-20.51,3.37-13.16-14.08-26.32-24.49-5.51Z"/>
              <path class="cls-26" d="m154.31,115.91c.56,2.49,2.4,4.21,4.1,3.82,1.7-.38,2.63-2.72,2.07-5.21s-2.4-4.21-4.1-3.82c-1.7.38-2.63,2.72-2.07,5.21Z"/>
              <path class="cls-26" d="m127.53,122c.56,2.49,2.4,4.21,4.1,3.82,1.7-.38,2.63-2.72,2.07-5.21-.56-2.49-2.4-4.21-4.1-3.82-1.7.38-2.63,2.72-2.07,5.21Z"/>
              <path class="cls-2" d="m162.85,133.85s-10.65,8.57-21.54,8.41"/>
              <path class="cls-3" d="m142.26,108.5c-.19.49-3.8,20.78,3.66,24.6"/>
              <path class="cls-11" d="m187.5,90.45c-1.28-1.77-2.36-28.1-33.35-33.98-30.99-5.89-52.93,23.48-48.14,58.76,0,0,1.26-19.55,27.86-21.39,26.6-1.84,47.66,4.61,47.66,4.61l5.97-7.99Z"/>
              <path class="cls-14" d="m78.46,103.01v-4.53c0-1.37.27-2.74.86-3.98,1.8-3.8,8.76-11.77,23.66-14.01,20.63-3.09,33.79,1.48,79.36,16.86l-.82,1.1s-42.82-13.02-68.15-9.97c-25.34,3.05-34.91,14.54-34.91,14.54Z"/>
              <path class="cls-21" d="m181.52,98.44s-23.95-8.9-54.16-15.49c-30.21-6.59-47.39,8.2-48.82,18.22-1.43,10.02,17.01,22.2,33.8,19.2,0,0-4.11-22.07,15.02-25.66,20.32-3.81,54.16,3.73,54.16,3.73Z"/>
              <path class="cls-25" d="m143.57,93.5s-21.17,26.37-29.37,24.05c0,0-2.08-1.11,0-4.98,0,0-5.54,7.49-9.55,5.13s-1.94-11.78,4.15-15.51c0,0-6.92-6.96,4.71-10.89,11.63-3.93,30.06,2.21,30.06,2.21Z"/>
              <path class="cls-25" d="m143.57,93.5s12.86,11.45,31.56,10.48c0,0,4.43,9.55,8.72,9.28,4.29-.28.14-9.19.14-9.19l-2.46-5.62s-43.35-11.8-58.45-8.46"/>
              <path class="cls-25" d="m112.15,111.2s-.6,9.62,1.58,15.92l-5.48-11.23,3.91-4.69Z"/>
            </g>
            <path class="cls-11" d="m150.64,169.6l-11.31,3.43c-7.48,2.27-13.52,7.82-16.42,15.08l-22.42,56.16,27.9,32.83,44.47-76.6-22.22-30.9Z"/>
            <path class="cls-11" d="m190.73,155.59s5.31-13.32,23.07-17.53c17.76-4.21,51.58.46,59.79,39.42,8.21,38.96-82.86-21.88-82.86-21.88Z"/>
            <path class="cls-16" d="m209.45,152c.47.25,36.54-14.08,53.2,21.07,0,0-52.25-20.57-52.73-20.82"/>
            <g>
              <path class="cls-28" d="m117.21,257.9c-4.51,3.08,144.05,44.55,184.58,27.17,0,0-130.13-64.39-184.58-27.17Z"/>
              <path class="cls-13" d="m125.68,248.42l-35.41,120.31c-7.18,24.39,9.06,49.44,34.25,52.86l128.36,17.38c25.2,3.41,47.51-16.43,47.07-41.85l-2.33-134.6s-96.52-70.8-171.95-14.08Z"/>
              <path class="cls-25" d="m167.58,207.2h-28.92c-8.83,0-16.26,6.61-17.29,15.38l-4.16,35.32s49.04-22.2,184.58,27.17l8.25-37.75c1.6-7.32-2.3-14.75-9.26-17.55-21.7-8.73-71.15-25.02-133.2-22.57Z"/>
              <g>
                <path class="cls-21" d="m183.61,408.36c35.23,5.16,68.08-19.3,73.24-54.53,5.16-35.23-19.3-68.08-54.53-73.24-35.23-5.16-68.08,19.3-73.24,54.53-5.16,35.23,19.3,68.08,54.53,73.24Z"/>
                <path class="cls-11" d="m185.23,397.28c-29.12-4.26-49.34-31.42-45.08-60.54,4.26-29.12,31.42-49.34,60.54-45.08,29.12,4.26,49.34,31.42,45.07,60.54-4.26,29.11-31.42,49.34-60.54,45.07Z"/>
                <circle class="cls-23" cx="192.96" cy="344.47" r="45.46" transform="translate(-125.01 110.4) rotate(-24.38)"/>
                <g>
                  <g>
                    <path class="cls-7" d="m188.15,312.7h15.44c10.73,0,19.44,8.71,19.44,19.44v4.16h-54.32v-4.16c0-10.73,8.71-19.44,19.44-19.44Z" transform="translate(49.08 -24.95) rotate(8.33)"/>
                    <path class="cls-7" d="m183.01,347.9h15.44c10.73,0,19.44,8.71,19.44,19.44v4.16h-54.32v-4.16c0-10.73,8.71-19.44,19.44-19.44Z" transform="translate(327.34 743.23) rotate(-171.67)"/>
                    <path class="cls-8" d="m164.79,352.01c.24,4.84,2.3,9.3,5.57,12.63,9.18.63,8.64-4.31,17.65,1.38,9.94,6.29,16.77,4.71,18.69,2.09.54-.74,2.68-.45,5.16.11,1.27-1.05,2.41-2.25,3.38-3.6l-50.45-12.62Z"/>
                    <g>
                      <path class="cls-24" d="m218.14,359.78l-53.72-7.87c-2.72-.4-4.6-2.92-4.2-5.64h0c.4-2.72,2.92-4.6,5.64-4.2l53.72,7.87c2.72.4,4.6,2.92,4.2,5.64h0c-.4,2.72-2.92,4.6-5.64,4.2Z"/>
                      <path class="cls-12" d="m219.58,349.94l-53.72-7.87c-2.37-.35-4.6,1.04-5.39,3.21,7.7-.29,25.38.35,63.34,9.52-.02-2.41-1.78-4.51-4.23-4.87Z"/>
                    </g>
                    <g>
                      <path class="cls-24" d="m219.58,349.94l-53.72-7.87c-2.72-.4-4.6-2.92-4.2-5.64h0c.4-2.72,2.92-4.6,5.64-4.2l53.72,7.87c2.72.4,4.6,2.92,4.2,5.64h0c-.4,2.72-2.92,4.6-5.64,4.2Z"/>
                      <path class="cls-12" d="m221.02,340.11l-53.72-7.87c-2.37-.35-4.6,1.04-5.39,3.21,7.7-.29,25.38.35,63.34,9.52-.02-2.41-1.78-4.51-4.23-4.87Z"/>
                    </g>
                    <path class="cls-21" d="m166.23,342.13s9.13,16.55,27.25,3.99l-27.25-3.99Z"/>
                    <path class="cls-21" d="m192.34,345.96s9.13,16.55,27.25,3.99l-27.25-3.99Z"/>
                    <path class="cls-15" d="m164.42,351.92s-9.05,4.81,3.56,6.97,10.87-4.53,20.81,1.76c9.94,6.29,16.77,4.71,18.69,2.09,1.92-2.62,23.6,7.63,10.66-2.96l-53.72-7.87Z"/>
                    <path class="cls-11" d="m180.52,344.22s13.91,5.02,15.3,17.38c0,0,13.25-4.7,14.49-13.02l-29.79-4.36Z"/>
                  </g>
                  <path class="cls-10" d="m185.41,321.54l-.72-.11c-.28-.04-.48-.31-.44-.59h0c.04-.28.31-.48.59-.44l.72.11c.28.04.48.31.44.59h0c-.04.28-.31.48-.59.44Z"/>
                  <path class="cls-10" d="m196.29,315.42l-.72-.11c-.28-.04-.48-.31-.44-.59h0c.04-.28.31-.48.59-.44l.72.11c.28.04.48.31.44.59h0c-.04.28-.31.48-.59.44Z"/>
                  <path class="cls-10" d="m199.83,319.91l-.72-.11c-.28-.04-.48-.31-.44-.59h0c.04-.28.31-.48.59-.44l.72.11c.28.04.48.31.44.59h0c-.04.28-.31.48-.59.44Z"/>
                  <path class="cls-10" d="m205.1,316.71l-.72-.11c-.28-.04-.48-.31-.44-.59h0c.04-.28.31-.48.59-.44l.72.11c.28.04.48.31.44.59h0c-.04.28-.31.48-.59.44Z"/>
                  <path class="cls-10" d="m211.39,319.55l-.72-.11c-.28-.04-.48-.31-.44-.59h0c.04-.28.31-.48.59-.44l.72.11c.28.04.48.31.44.59h0c-.04.28-.31.48-.59.44Z"/>
                  <path class="cls-10" d="m214.14,322.53l-.72-.11c-.28-.04-.48-.31-.44-.59h0c.04-.28.31-.48.59-.44l.72.11c.28.04.48.31.44.59h0c-.04.28-.31.48-.59.44Z"/>
                  <path class="cls-10" d="m207.18,322.56l-.72-.11c-.28-.04-.48-.31-.44-.59h0c.04-.28.31-.48.59-.44l.72.11c.28.04.48.31.44.59h0c-.04.28-.31.48-.59.44Z"/>
                  <path class="cls-10" d="m192.88,322.63l-.72-.11c-.28-.04-.48-.31-.44-.59h0c.04-.28.31-.48.59-.44l.72.11c.28.04.48.31.44.59h0c-.04.28-.31.48-.59.44Z"/>
                  <path class="cls-10" d="m200.58,324.28l-.72-.11c-.28-.04-.48-.31-.44-.59h0c.04-.28.31-.48.59-.44l.72.11c.28.04.48.31.44.59h0c-.04.28-.31.48-.59.44Z"/>
                  <path class="cls-10" d="m190.4,318.01l-.72-.11c-.28-.04-.48-.31-.44-.59h0c.04-.28.31-.48.59-.44l.72.11c.28.04.48.31.44.59h0c-.04.28-.31.48-.59.44Z"/>
                  <path class="cls-10" d="m187.08,314.08l-.72-.11c-.28-.04-.48-.31-.44-.59h0c.04-.28.31-.48.59-.44l.72.11c.28.04.48.31.44.59h0c-.04.28-.31.48-.59.44Z"/>
                  <path class="cls-10" d="m181.29,316.67l-.72-.11c-.28-.04-.48-.31-.44-.59h0c.04-.28.31-.48.59-.44l.72.11c.28.04.48.31.44.59h0c-.04.28-.31.48-.59.44Z"/>
                </g>
              </g>
              <g>
                <path class="cls-7" d="m284.88,209.85s9.61-22.53-6.96-33.47c-16.57-10.94-14.25,0-23.86-11.27-9.61-11.27-18.89-2.98-27.84-8.28-8.95-5.3-15.24-12.25-27.84-6.62-12.59,5.63-12.92-1.99-26.84,8.61-13.92,10.6-17.56,28.17-17.56,44.74s5.3,46.06,9.94,52.36c4.64,6.3,13.92,9.28,19.55,2.32,0,0,9.28,23.86,25.85,8.62,0,0,9.28,11.27,24.19-1.99,0,0,10.6,9.94,23.2-5.3,12.59-15.24,28.17-49.71,28.17-49.71Z"/>
                <path class="cls-16" d="m183.48,258.23s-6.3-44.74,2.32-85.16c0,0-15.85,57.7-10.24,89.16,0,0,4.94.64,7.92-4Z"/>
                <path class="cls-16" d="m209.33,266.84s5.3-68.26,8.95-85.16c0,0-14.42,61.15-13.01,88.23l4.06-3.07Z"/>
                <path class="cls-16" d="m233.52,264.86s12.26-51.03,16.57-73.23c0,0-8.07,59.94-12.65,75.54l-3.92-2.3Z"/>
              </g>
            </g>
            <g>
              <path class="cls-18" d="m78.13,256.17l-10.82-16.94s-5.02-5.65-11.14-1.1c0,0-1.88,1.57,1.1,5.8,2.98,4.24,13.96,26.67,13.96,26.67l6.9-14.43Z"/>
              <g>
                <polygon class="cls-9" points="116.23 265.97 89 280.64 50.52 221.46 87.99 201.28 116.23 265.97"/>
                <rect class="cls-9" x="60.6" y="191.65" width="3.17" height="20.44" transform="translate(-88.3 53.64) rotate(-28.31)"/>
                <polygon class="cls-9" points="59.12 195 35.78 198.91 35.36 195.98 58.71 192.07 59.12 195"/>
                <rect class="cls-11" x="45.75" y="207.96" width="47.05" height="6.34" transform="translate(-91.85 58.11) rotate(-28.31)"/>
                <path class="cls-30" d="m116.23,265.97l-15.84-36.26c-2.93,1.86.47-5.23-10.44-4.85-10.95.38-22.27,16.45-24.44,19.67l23.48,36.11,27.23-14.67Z"/>
              </g>
              <path class="cls-17" d="m65.58,257.89c1.1-8.78,8.78-19.61,18.98-26.51,10.2-6.9,12.39.94,10.35,6.12,0,0,4.35-5.98,10.72-6.13,6.38-.15,1.04,11.91,1.04,11.91,0,0,7.22-1.86,5.8,8.81,0,0,8.16.86,3.29,15.72-4.86,14.86-17.57,26-21.8,25.37-4.24-.63-32.66-1.18-28.39-35.29Z"/>
            </g>
            <path class="cls-18" d="m94.91,237.5s-10.92,10.01-16.78,22.6c0,0,6.19-15.3,17.43-27.04,0,0,.2,1.79-.65,4.44Z"/>
            <path class="cls-18" d="m106.68,243.28s-10.07,14.56-15.44,22.77c0,0,11.12-21.88,17.45-29.69,0,0-.92,5.36-2.01,6.93Z"/>
            <path class="cls-18" d="m112.48,252.09s-5.11,13.01-7.94,18.51c0,0,7.68-10.13,10.07-17.6,0,0-.27-.43-2.13-.91Z"/>
          </g>
        </g>
        <g>
          <polygon class="cls-21" points="78.94 254.39 42.16 254.39 38.2 327.08 82.98 327.08 78.94 254.39"/>
          <polygon class="cls-19" points="42.16 254.39 78.94 254.39 41.16 275.83 42.16 254.39"/>
          <rect class="cls-21" x="38.98" y="244.73" width="43.13" height="10.99"/>
          <polygon class="cls-21" points="68.26 248 52.84 248 56.84 218.55 64.26 218.55 68.26 248"/>
          <polygon class="cls-19" points="67.67 244.73 53.27 244.73 54.65 234.59 67.67 244.73"/>
        </g>
        <g>
          <polygon class="cls-11" points="42.86 270.52 14.26 270.52 11.18 327.05 46 327.05 42.86 270.52"/>
          <polygon class="cls-20" points="14.26 270.52 42.86 270.52 13.48 287.2 14.26 270.52"/>
          <rect class="cls-11" x="11.79" y="263.01" width="33.54" height="8.55"/>
          <polygon class="cls-11" points="34.55 265.56 22.56 265.56 25.67 242.65 31.44 242.65 34.55 265.56"/>
          <polygon class="cls-20" points="34.1 263.01 22.9 263.01 23.97 255.13 34.1 263.01"/>
        </g>
      </g>
    </g>
  </g>
</svg>