<?xml version="1.0" encoding="UTF-8"?>
<svg xmlns="http://www.w3.org/2000/svg" viewBox="0 0 359.35 361.16">
  <defs>
    <style>
      .cls-1, .cls-2 {
        fill: #fff;
      }

      .cls-1, .cls-3 {
        opacity: .1;
      }

      .cls-4 {
        fill: none;
        isolation: isolate;
      }

      .cls-5 {
        fill: #f7bca1;
      }

      .cls-6 {
        fill: #fb3b2d;
      }

      .cls-7 {
        fill: #fce083;
      }

      .cls-8 {
        fill: #f2d46f;
      }

      .cls-9 {
        fill: #ffd0ba;
      }

      .cls-10 {
        fill: #e6c761;
      }

      .cls-11 {
        fill: #823135;
      }

      .cls-12 {
        fill: #b8454a;
      }

      .cls-13 {
        fill: #3193c2;
      }

      .cls-14 {
        fill: #30394d;
      }

      .cls-15 {
        fill: #c94c51;
      }

      .cls-16 {
        fill: #1e5b78;
      }

      .cls-17 {
        fill: #232a38;
      }

      .cls-18 {
        fill: #43506b;
      }

      .cls-19 {
        fill: #637599;
      }

      .cls-20 {
        fill: #297ca3;
      }

      .cls-21 {
        fill: #3b475e;
      }

      .cls-22 {
        fill: #2d88b3;
      }

      .cls-3, .cls-23 {
        mix-blend-mode: multiply;
      }

      .cls-23 {
        opacity: .15;
      }
    </style>
  </defs>
  <g class="cls-4">
    <g id="OBJECTS">
      <ellipse class="cls-3" cx="202.56" cy="344.76" rx="156.79" ry="16.39"/>
      <g>
        <g>
          <path class="cls-18" d="m83.69,239.36h0c-1.19,1.19-3.14,1.19-4.33,0L13.12,199.41c-1.19-1.19-1.19-3.14,0-4.33h0c1.19-1.19,3.14-1.19,4.33,0l66.24,39.95c1.19,1.19,1.19,3.14,0,4.33Z"/>
          <path class="cls-18" d="m118.65,200.79H3.82c-2.1,0-3.82-1.72-3.82-3.82h0c0-2.1,1.72-3.82,3.82-3.82h114.83c2.1,0,3.82,1.72,3.82,3.82h0c0,2.1-1.72,3.82-3.82,3.82Z"/>
        </g>
        <g>
          <rect class="cls-13" x="10.86" y="99.09" width="94.07" height="94.07" rx="4.57" ry="4.57"/>
          <path class="cls-3" d="m15.43,193.16h84.93c2.53,0,4.57-2.05,4.57-4.57v-84.93c0-.75-.2-1.45-.52-2.08l-6.96,80.93c-.49,3.13-3.09,5.51-6.25,5.71l-70.38,1.72c-2.76.18-5.43-1.06-7.07-3.28l-2.89-3.91v5.84c0,2.53,2.05,4.57,4.57,4.57Z"/>
          <path class="cls-20" d="m10.42,99.09h92.53c1.09,0,1.98.89,1.98,1.98v13.24c0,1.09-.89,1.98-1.98,1.98H10.42c-1.09,0-1.98-.89-1.98-1.98v-13.24c0-1.09.89-1.98,1.98-1.98Z"/>
          <path class="cls-3" d="m10.47,108.64c-1.12-.05-2.03-.97-2.03-2.07v7.73c0,1.09.89,1.98,1.98,1.98h92.53c1.09,0,1.98-.89,1.98-1.98v-1.69l-94.46-3.98Z"/>
        </g>
        <g>
          <g>
            <path class="cls-5" d="m247.86,105.7s4.72,4.48,11.28,3.08,9.45-6.8,7.27-9.47c-2.18-2.66-18.07-2.59-18.07-2.59l-.48,8.97Z"/>
            <path class="cls-18" d="m275.75,104.42l-18.46,1.67c-1.62.15-3.07-1.06-3.22-2.68h0c-.15-1.62,1.06-3.07,2.68-3.22l18.46-1.67c1.62-.15,3.07,1.06,3.22,2.68h0c.15,1.62-1.06,3.07-2.68,3.22Z"/>
            <path class="cls-5" d="m248.34,96.73s6.11-2.64,13.09-2.27c6.98.37,9.86,3.74,9.49,8.09-.38,4.35-2.49,5.7-6.14,5.8-3.65.1-4.53-2.52-4.53-2.52,0,0,6.21-1.83,2.8-6.21l-4.27.39s-7.05,1.62-10.44-3.28Z"/>
          </g>
          <path class="cls-5" d="m248.34,96.73c-39.06-.38-67.17-12.03-83.74-21.58-2.09,1.91-4.19,3.8-6.19,5.81-3.08,3.1-6.05,6.32-8.97,9.58,42.86,27.43,99.09,17.62,99.09,17.62,5.52-7.87-.2-11.42-.2-11.42Z"/>
          <path class="cls-6" d="m156.71,67.93c-9.27-2.64-23.94,9.9-18.74,23.08,4.35,11.05,14.42,16.31,33.98,16.85,0,0,9.16-6.04,11.66-27.44,0,0-9.34-7.5-26.9-12.49Z"/>
        </g>
        <g>
          <g>
            <g>
              <path class="cls-6" d="m112.89,191s-13.22,6.51-26.43,28.35c-22,36.36-6.06,73.58-6.06,73.58l232.69-9s13.36-16.16,11.23-76.33-35.72-98.96-35.72-98.96l-21.11,11.56s23.25,36.74,7.89,95.94c-18.93,72.94-90.17,49.38-90.17,49.38,0,0-2-3.51-9.45-9.66,6.99-18.03,10.37-35.45,7.15-65.65l-70.01.77Z"/>
              <g>
                <path class="cls-15" d="m285.84,217.17h8.2c2.73,0,4.94,2.21,4.94,4.94v.03c0,2.73-2.21,4.94-4.94,4.94h-8.2c-2.73,0-4.94-2.21-4.94-4.94v-.03c0-2.73,2.21-4.94,4.94-4.94Z"/>
                <rect class="cls-7" x="283.13" y="218.98" width="13.62" height="6.31" rx="3.15" ry="3.15"/>
                <rect class="cls-2" x="285.11" y="220.43" width="4.84" height="2.31" rx="1.14" ry="1.14"/>
              </g>
              <path class="cls-15" d="m205.3,277.71c21.91,0,39.67-6.47,39.67-14.46,0-.8-.19-1.59-.53-2.36-26.89,15.34-59.24,4.64-59.24,4.64,0,0-2-3.51-9.45-9.66.34-.89.68-1.77,1-2.66-6.88,2.6-11.12,6.13-11.12,10.03,0,7.99,17.76,14.46,39.67,14.46Z"/>
              <path class="cls-6" d="m77.71,284.57c1.36,5.28,2.68,8.37,2.68,8.37l232.69-9s1.42-2.69,3.26-8.37l-238.63,9Z"/>
              <path class="cls-6" d="m135.2,224.76c2-5.2,6.6-8.97,12.12-9.69,17.03-2.23,29.62-6.55,36.69-9.49-.04-1.1-.09-2.23-.15-3.37,0-.15-.02-.3-.02-.45-.06-1.17-.14-2.35-.23-3.56,0-.02,0-.04,0-.05-.08-1.12-.18-2.27-.28-3.43-.02-.28-.05-.56-.08-.85-.11-1.19-.23-2.4-.36-3.64,0,0,0,0,0,0l-70.01.77s-4.66,2.29-11.21,8.73c-.34.34-.69.69-1.05,1.05-1.77,1.81-3.67,3.91-5.64,6.34-1.18,1.46-2.38,3.04-3.6,4.74-.81,1.13-1.63,2.32-2.46,3.57-.82,1.25-1.65,2.55-2.47,3.92-5.62,9.29-8.76,18.64-10.32,27.41,42.68-.28,55.04-11.54,59.07-22Z"/>
              <g>
                <path class="cls-11" d="m116.36,216.1h-17.07c-1.31,0-2.37-1.07-2.37-2.37h0c0-1.31,1.07-2.37,2.37-2.37h17.07c1.31,0,2.37,1.07,2.37,2.37h0c0,1.31-1.07,2.37-2.37,2.37Z"/>
                <path class="cls-11" d="m116.29,226.74h-21.71c-1.31,0-2.37-1.07-2.37-2.37h0c0-1.31,1.07-2.37,2.37-2.37h21.71c1.31,0,2.37,1.07,2.37,2.37h0c0,1.31-1.07,2.37-2.37,2.37Z"/>
                <path class="cls-11" d="m116.22,237.38h-26.58c-1.31,0-2.37-1.07-2.37-2.37h0c0-1.31,1.07-2.37,2.37-2.37h26.58c1.31,0,2.37,1.07,2.37,2.37h0c0,1.31-1.07,2.37-2.37,2.37Z"/>
              </g>
              <path class="cls-6" d="m324.53,217.5c0-.21,0-.42,0-.62-.01-1.38-.04-2.77-.07-4.2,0-.18,0-.36-.01-.54-.03-1.48-.08-2.98-.13-4.51,0,0,0-.01,0-.02,0,0,0,0,0-.01-.05-1.43-.13-2.85-.21-4.26-.02-.25-.03-.5-.04-.74-.09-1.35-.19-2.68-.31-4.01-.02-.26-.05-.52-.07-.78-.13-1.35-.26-2.7-.42-4.02-.01-.1-.02-.19-.04-.28-.15-1.29-.32-2.57-.51-3.83-.03-.2-.06-.41-.09-.61-.19-1.28-.39-2.54-.6-3.79-.04-.25-.08-.49-.13-.74-.22-1.26-.45-2.5-.69-3.73-.03-.14-.06-.28-.09-.43-.24-1.19-.49-2.37-.75-3.54-.03-.14-.06-.29-.09-.43-.27-1.2-.55-2.39-.84-3.57-.05-.22-.11-.44-.16-.66-.29-1.17-.59-2.32-.9-3.46-.04-.16-.09-.31-.13-.47-.31-1.13-.63-2.26-.96-3.36-.02-.07-.04-.14-.06-.21-.34-1.14-.69-2.25-1.04-3.36-.06-.18-.12-.37-.18-.55-.35-1.08-.71-2.14-1.07-3.19-.05-.16-.11-.32-.17-.47-.76-2.18-1.54-4.29-2.34-6.33-.06-.14-.11-.28-.17-.43-.39-.99-.79-1.97-1.18-2.93-.06-.14-.12-.28-.17-.42-.41-.98-.83-1.96-1.24-2.91-8.66,6.15-.39,21.38-1.07,58.95-.85,47.23-8.44,65.36-8.44,65.36l19.93-2.3c2.07-8.55,3.9-20.7,4.36-37.57,0-.31.02-.62.02-.94.02-.7.03-1.41.04-2.13.02-1.05.03-2.11.04-3.19,0-.27,0-.54,0-.82,0-1.29,0-2.6,0-3.93Z"/>
            </g>
            <g>
              <circle class="cls-21" cx="112.26" cy="300.59" r="46.62" transform="translate(-179.67 167.42) rotate(-45)"/>
              <path class="cls-23" d="m112.59,342.51c-24.79,0-45.05-20.35-46.52-44.77-.06.94-.09,1.89-.09,2.85,0,25.75,20.87,46.62,46.62,46.62s46.62-20.87,46.62-46.62c0-.96-.04-1.91-.09-2.85-1.47,24.42-21.73,44.77-46.52,44.77Z"/>
              <circle class="cls-23" cx="112.26" cy="300.59" r="35.13" transform="translate(-179.67 167.42) rotate(-45)"/>
              <circle class="cls-19" cx="112.26" cy="300.59" r="30.66" transform="translate(-108.33 67.57) rotate(-22.95)"/>
              <path class="cls-18" d="m110.28,307.61h0c-3.41,0-5.78-2.79-5.27-6.2l4.31-28.59c.51-3.41,3.73-6.2,7.14-6.2h0c3.41,0,5.78,2.79,5.27,6.2l-4.31,28.59c-.51,3.41-3.73,6.2-7.14,6.2Z"/>
              <circle class="cls-18" cx="112.26" cy="300.59" r="12.26" transform="translate(-179.67 167.42) rotate(-45)"/>
              <path class="cls-1" d="m118.74,297.59c0,3.58-2.9,6.47-6.47,6.47s-6.47-2.9-6.47-6.47,2.9-6.47,6.47-6.47,6.47,2.9,6.47,6.47Z"/>
              <g>
                <path class="cls-6" d="m112.26,282.97c16.72,0,34.54,4.08,44.55,6.07,8.52,1.69,14.65-2.33,8.53-12.47-12.97-21.48-31.52-30.3-53.07-30.3s-45.16,13.83-51.97,35.06c-2.8,8.75.8,16.5,8.49,12.47,14.42-7.56,26.76-10.82,43.48-10.82Z"/>
                <path class="cls-12" d="m118.6,275.57c-18.92-1.18-33.26,2.41-49.57,8.95-4.9,1.97-8.01,1.24-9.23-1.3-1.75,7.92,1.87,14.32,8.99,10.58,14.42-7.56,26.76-10.82,43.48-10.82s34.54,4.08,44.55,6.07c3.74.74,7.02.38,9.01-1.12-11.79-3.53-30.25-11.29-47.22-12.35Z"/>
              </g>
            </g>
            <g>
              <circle class="cls-21" cx="307.13" cy="300.59" r="46.62" transform="translate(-57.81 73.65) rotate(-12.51)"/>
              <path class="cls-23" d="m307.02,342.51c-24.79,0-45.05-20.35-46.52-44.77-.06.94-.09,1.89-.09,2.85,0,25.75,20.87,46.62,46.62,46.62s46.62-20.87,46.62-46.62c0-.96-.04-1.91-.1-2.85-1.47,24.42-21.73,44.77-46.52,44.77Z"/>
              <circle class="cls-23" cx="307.13" cy="300.59" r="35.13" transform="translate(-122.6 305.21) rotate(-45)"/>
              <circle class="cls-19" cx="307.13" cy="300.59" r="30.66" transform="translate(-60.16 77.48) rotate(-13.11)"/>
              <path class="cls-18" d="m309.11,307.61h0c3.41,0,5.78-2.79,5.27-6.2l-4.31-28.59c-.51-3.41-3.73-6.2-7.14-6.2h0c-3.41,0-5.78,2.79-5.27,6.2l4.31,28.59c.51,3.41,3.73,6.2,7.14,6.2Z"/>
              <circle class="cls-18" cx="307.13" cy="300.59" r="12.26" transform="translate(-60.57 78.15) rotate(-13.21)"/>
              <path class="cls-1" d="m313.5,297.59c0,3.58-2.9,6.47-6.47,6.47s-6.47-2.9-6.47-6.47,2.9-6.47,6.47-6.47,6.47,2.9,6.47,6.47Z"/>
              <g>
                <path class="cls-6" d="m307.13,277.43c-14.66,0-29.12,6.47-41.76,7.68-10.57,1.01-9.99-2.34-7.15-8.2,8.8-18.14,27.4-30.65,48.91-30.65s40.11,12.51,48.91,30.65c2.84,5.86-3.27,12.02-9.15,9.2-11.45-5.49-25.11-8.68-39.76-8.68Z"/>
                <path class="cls-12" d="m356.04,276.9c-.04-.08-.08-.16-.12-.24-1.44,3.08-5.4,4.93-9.26,3.29-11.42-4.84-17.51-10.02-40.66-8.41-11.98.83-25.86,9.13-37.42,13.15,11.86-1.84,25.12-7.26,38.56-7.26,14.66,0,28.31,3.19,39.76,8.68,5.88,2.82,11.99-3.34,9.15-9.2Z"/>
              </g>
            </g>
          </g>
          <g>
            <path class="cls-6" d="m268.66,130.46c-5.35.52-5.16-19.57-4.63-31.02.2-4.37,3.41-8.04,7.18-8.19,12.19-.49,36.69.44,36.45,15.81-.32,20.45-24.9,22.01-39.01,23.39Z"/>
            <path class="cls-15" d="m291.53,92.6c-1.45,3.47-2.25,7.16-2.25,10.93,0,8,3.57,14.91,9.38,19.7,5.24-3.34,8.88-8.38,9-16.17.13-8.53-7.36-12.61-16.13-14.47Z"/>
            <path class="cls-7" d="m293.29,93.01c-.89,2.76-1.37,5.63-1.37,8.56,0,8.01,3.58,14.92,9.39,19.71,3.78-3.27,6.25-7.82,6.35-14.21.13-7.95-6.38-12.03-14.37-14.06Z"/>
          </g>
          <g>
            <path class="cls-18" d="m179.33,184.93l-67.17-2.18c-3.52-.11-6.84,1.53-8.71,4.33h0c-3.07,4.58-1.34,10.66,3.76,13.22h0c11.09,5.56,23.68,7.88,36.15,6.66l39.23-3.85c2.64-.26,5.02-1.61,6.49-3.69h0c2.86-4.04,1.49-9.52-2.99-11.96l-2.56-1.4c-1.28-.7-2.72-1.09-4.2-1.14Z"/>
            <path class="cls-3" d="m186.01,197.33l-42.88,3.73c-13.64,1.19-27.41-1.17-39.55-6.77-.55-.25-1.05-.55-1.53-.87.45,2.82,2.26,5.42,5.16,6.88,11.09,5.56,23.68,7.88,36.15,6.66l39.23-3.85c2.64-.26,5.02-1.61,6.49-3.69.77-1.09,1.23-2.29,1.4-3.5-1.32.77-2.84,1.27-4.47,1.41Z"/>
          </g>
        </g>
        <g>
          <g>
            <g>
              <path class="cls-14" d="m189.74,246.09s-14.23,12.51-6.42,19.91c7.81,7.4,52.41,4.01,54.33,0,1.92-4.02-35.93-20.55-35.93-20.55l-11.98.65Z"/>
              <path class="cls-17" d="m235.66,263.09c-14.17,2.37-42.8,3.51-54.35-.2.35,1.1.99,2.15,2,3.11,7.81,7.4,52.41,4.01,54.33,0,.32-.67-.47-1.68-1.99-2.91Z"/>
            </g>
            <g>
              <path class="cls-8" d="m125.51,154.11s-8.58,13.26,8.94,28.5c10.64,9.26,37.69,10.84,73.52,3.76-5.79,24.96-24.25,62.98-24.25,62.98,0,0,16.69,7.25,34.26,1.08,0,0,26.15-59.27,21.3-78.47-5.57-22.05-66.94-16.31-66.94-16.31l-46.82-1.55Z"/>
              <path class="cls-3" d="m172.17,155.67l-46.82-1.55s-1.23,2.29.9,14.64c14.76-.13,30.45-2.33,45.92-13.09Z"/>
              <path class="cls-10" d="m237.76,192.36c1.82-8.21,2.59-15.52,1.36-20.39-.52-2.06-1.47-3.87-2.76-5.47-2.25-2.59-5.52-4.61-9.41-6.19-.65,2.66-1.02,5.48-1.03,8.4-.06,11.15,4.87,20.38,11.83,23.64Z"/>
            </g>
          </g>
          <g>
            <g>
              <path class="cls-18" d="m181.7,247.63s-14.3,11.5-6.37,19.16c7.93,7.66,52.96,6.71,54.88,2.87,1.92-3.83-36.41-22.04-36.41-22.04h-12.1Z"/>
              <path class="cls-14" d="m228.18,266.71c-14.3,1.57-43.21,1.17-54.89-3.07.36,1.09,1.01,2.15,2.04,3.15,7.93,7.66,52.96,6.71,54.88,2.87.32-.64-.48-1.67-2.02-2.95Z"/>
            </g>
            <g>
              <path class="cls-7" d="m123.05,147.03s-15.33,21.6,2.45,37.45c10.8,9.63,38.13,12.61,74.27,7.58-5.7,24.14-24.14,58.44-24.14,58.44,0,0,16.9,7.98,34.61,2.87,0,0,26.08-54.72,21.08-73.77-5.75-21.89-60.91-19.16-60.91-19.16l-47.35-13.41Z"/>
              <path class="cls-3" d="m170.25,160.44l-47.35-13.41s-7.97,11.24-5.75,23.45c14.91.66,37.54-.31,53.1-10.03Z"/>
              <path class="cls-8" d="m218.88,167.22c-.69,2.66-1.07,5.52-1.07,8.5,0,10.92,5.03,20.22,12.09,23.78,1.8-7.94,2.53-15.07,1.26-19.9-1.46-5.57-6.13-9.55-12.28-12.38Z"/>
            </g>
          </g>
          <path class="cls-6" d="m157.88,66.91c-24.3.01-47.76,36.65-49.65,100.57,0,0,28.65,6.86,64.02-12.04,0,0-3.83-28.87.37-53.5,4.86-28.51-2.09-35.04-14.73-35.03Z"/>
          <path class="cls-3" d="m174.17,86.39c-6.82-3.11-17.36-7.41-27.92-9.82-9.4-2.14-17.49,7.68-15.32,21.68,2.28,14.77,20.56,27.08,39.31,27.48.38-7.98,1.1-16.31,2.37-23.79,1.05-6.16,1.55-11.29,1.55-15.55Z"/>
          <g>
            <path class="cls-9" d="m159.36,46.74s-6.63,8.73-10.4,22.67c0,0,10.02,5.24,21.92,4.13,0,0,2.42-13.49,5.56-17.29l-17.08-9.51Z"/>
            <path class="cls-5" d="m176.44,56.25l-17.08-9.51s-2.13,2.81-4.66,7.78c.06.09.12.18.18.27,5.72,8.01,11.6,12.28,17.03,13.83,1-4.26,2.63-10.08,4.53-12.37Z"/>
          </g>
          <g>
            <g>
              <path class="cls-9" d="m193.98,33.09s4.81,9.92,3.62,12.7c-1.47,3.43-9.18,1.97-9.18,1.97l5.56-14.67Z"/>
              <path class="cls-9" d="m171.28,6.51c-28.27-.08-30.99,26.31-18.67,44.07,16.44,23.7,34.25,14.85,39.39-1.57,3.59-11.47,9.32-42.42-20.72-42.5Z"/>
            </g>
            <path class="cls-14" d="m170.28,33.03s2.99,1.01,4.95.01c1.96-1,1.81-3.45,1.81-3.45,0,0,6.7,2.72,13.24,2.25,6.54-.47,7.29-2.92,6.23-6.12l-30.37,1.68,4.14,5.63Z"/>
            <g>
              <path class="cls-22" d="m170.29,27.41c5.4,26.94-20.37,22.54-20.37,22.54l1.52-20.33,18.85-2.21Z"/>
              <path class="cls-13" d="m197.2,23.96S195.09-3.47,165.05.37c-28.97,3.71-33.39,34.45-11.82,55.19,1.64,1.58,2.25.76,2.76-1.46,1.29-5.68,3.2-12.56,3.33-23.02.05-4.08,37.88-7.11,37.88-7.11Z"/>
              <path class="cls-20" d="m203.01,26.99l-42.31,6.01c-1.5.21-2.89-.84-3.11-2.33h0c-.21-1.5.84-2.89,2.33-3.11l42.31-6.01c1.5-.21,2.89.84,3.11,2.33h0c.21,1.5-.84,2.89-2.33,3.11Z"/>
              <path class="cls-16" d="m166.12,38.82c0,.96-.78,1.73-1.74,1.73s-1.73-.78-1.73-1.74c0-.96.78-1.73,1.74-1.73.96,0,1.73.78,1.73,1.74Z"/>
            </g>
          </g>
          <g>
            <g>
              <path class="cls-9" d="m247.28,111.9s4.96,4.22,11.43,2.48c6.47-1.75,9.08-7.3,6.76-9.84-2.32-2.54-18.19-1.62-18.19-1.62v8.98Z"/>
              <path class="cls-18" d="m275.06,109.14l-18.34,2.65c-1.61.23-3.12-.9-3.36-2.51h0c-.23-1.61.9-3.12,2.51-3.36l18.34-2.65c1.61-.23,3.12.9,3.36,2.51h0c.23,1.61-.9,3.12-2.51,3.36Z"/>
              <path class="cls-9" d="m247.28,102.92s5.96-2.96,12.95-2.96,10.05,3.21,9.9,7.57c-.15,4.37-2.18,5.82-5.83,6.12s-4.65-2.28-4.65-2.28c0,0,6.1-2.16,2.46-6.35l-4.24.61s-6.95,1.99-10.6-2.72Z"/>
            </g>
            <path class="cls-9" d="m247.28,102.92c-39.02,1.7-67.71-8.43-84.77-17.09-1.99,2.02-3.98,4.01-5.87,6.13-2.91,3.26-5.7,6.64-8.44,10.04,44.26,25.1,99.89,12.31,99.89,12.31,5.1-8.16-.8-11.4-.8-11.4Z"/>
            <path class="cls-6" d="m146.25,76.57c-9.4-2.14-21.21,8.8-15.32,21.68,4.94,10.81,21.11,20.35,40.67,19.85,0,0,8.83-6.52,10.18-28.02,0,0-17.74-9.46-35.53-13.51Z"/>
          </g>
        </g>
      </g>
    </g>
  </g>
</svg>