<?xml version="1.0" encoding="UTF-8"?>
<svg id="OBJECTS" xmlns="http://www.w3.org/2000/svg" viewBox="0 0 306.52 227.02">
  <defs>
    <style>
      .cls-1, .cls-2 {
        opacity: .72;
      }

      .cls-1, .cls-3 {
        fill: none;
      }

      .cls-4 {
        fill: #fc7b65;
      }

      .cls-5, .cls-2 {
        fill: #fff;
      }

      .cls-6 {
        fill: #edb298;
      }

      .cls-7 {
        fill: #ffc840;
      }

      .cls-8 {
        fill: #ef5232;
      }

      .cls-9 {
        fill: #f0cdbb;
      }

      .cls-10 {
        fill: #ff8500;
      }

      .cls-11 {
        fill: #849ff4;
      }

      .cls-12 {
        fill: #848181;
      }

      .cls-13 {
        fill: #c42416;
      }

      .cls-14 {
        fill: #b2adad;
      }

      .cls-15 {
        fill: #af1810;
      }

      .cls-16 {
        fill: #bcb8b5;
      }

      .cls-17 {
        fill: #dda526;
      }

      .cls-18 {
        fill: #dbd9d7;
      }

      .cls-19 {
        fill: #e43923;
      }

      .cls-20 {
        fill: #203582;
      }

      .cls-21 {
        fill: #191717;
      }

      .cls-22 {
        fill: #3f3e3e;
      }

      .cls-23 {
        fill: #5b5959;
      }

      .cls-24 {
        fill: #4859bc;
      }

      .cls-25 {
        fill: #2f439b;
      }

      .cls-26 {
        fill: #262525;
      }

      .cls-3 {
        opacity: .21;
      }
    </style>
  </defs>
  <g>
    <path class="cls-2" d="m143.6,153.01H24.73c-1.3,0-2.37,1.07-2.37,2.37h0c0,1.3,1.07,2.37,2.37,2.37h118.86c1.3,0,2.37-1.07,2.37-2.37h0c0-1.3-1.07-2.37-2.37-2.37Z"/>
    <g>
      <rect class="cls-2" x="39.14" y="84.69" width="84.7" height="3.84" rx="1.92" ry="1.92"/>
      <rect class="cls-2" x="12.07" y="84.69" width="19.24" height="3.84" rx="1.92" ry="1.92"/>
    </g>
    <g class="cls-1">
      <path class="cls-5" d="m107.59,121.71H23.6c-1.1,0-1.99.9-1.99,1.99h0c0,1.1.9,1.99,1.99,1.99h83.99c1.1,0,1.99-.9,1.99-1.99h0c0-1.1-.9-1.99-1.99-1.99Z"/>
      <path class="cls-5" d="m10.81,121.71H1.99c-1.1,0-1.99.9-1.99,1.99h0c0,1.1.9,1.99,1.99,1.99h8.81c1.1,0,1.99-.9,1.99-1.99h0c0-1.1-.9-1.99-1.99-1.99Z"/>
    </g>
    <g>
      <path class="cls-2" d="m159.51,51.83h-83.99c-1.1,0-1.99.9-1.99,1.99h0c0,1.1.9,1.99,1.99,1.99h83.99c1.1,0,1.99-.9,1.99-1.99h0c0-1.1-.9-1.99-1.99-1.99Z"/>
      <path class="cls-2" d="m62.73,51.83H23.62c-1.1,0-1.99.9-1.99,1.99h0c0,1.1.9,1.99,1.99,1.99h39.11c1.1,0,1.99-.9,1.99-1.99h0c0-1.1-.9-1.99-1.99-1.99Z"/>
    </g>
  </g>
  <g>
    <g>
      <g>
        <rect class="cls-9" x="248.41" y="71.31" width="13.13" height="6.16" transform="translate(7.85 -22.96) rotate(5.24)"/>
        <g>
          <rect class="cls-9" x="255.64" y="69.9" width="13.41" height="10.2" rx="4.15" ry="4.15" transform="translate(7.94 -23.63) rotate(5.24)"/>
          <path class="cls-6" d="m267.24,70.83c.04.29.04.58.02.88l-.17,1.9c-.21,2.27-2.24,3.96-4.51,3.75l-5.09-.47c-.7-.06-1.33-.32-1.88-.68.23,1.89,1.76,3.45,3.73,3.63l5.09.47c2.27.21,4.3-1.48,4.51-3.75l.17-1.9c.14-1.57-.63-3.01-1.87-3.83Z"/>
        </g>
      </g>
      <path class="cls-25" d="m175.67,42.74l27.25,17.68c3.08,2.41,6.74,3.97,10.61,4.52l37.69,5.02-.11,8.61-42.35-3.02c-2.77-.21-5.49-.91-8.02-2.07l-25.36-11.7.29-19.05Z"/>
    </g>
    <g>
      <g>
        <polygon class="cls-9" points="210.02 163.66 210.49 169.88 223.69 172.43 221.07 161.75 210.02 163.66"/>
        <path class="cls-25" d="m208.26,169.02l-.16,5.43c-.07,2.27,1.72,4.16,3.98,4.23l22.33.66c1.14.03,2.08-.87,2.11-2.01.07-2.89-.99-8.01-8.86-9.78l-16.86-.88c-1.36-.07-2.51.99-2.55,2.35Z"/>
        <path class="cls-20" d="m227.66,167.56l-7.03-.37v.14s.73.04.73.04c7.87,1.78,8.93,6.89,8.86,9.78-.03,1.14-.97,2.04-2.11,2.01l6.3.19c1.14.03,2.08-.87,2.11-2.01.07-2.89-.99-8.01-8.86-9.78Z"/>
      </g>
      <path class="cls-25" d="m177.49,94.02l32.08,11.44c2.26.92,3.86,2.98,4.2,5.39l9.03,53.07-13.49,1.21-8.66-41.87-33.75-20.73,10.6-8.52Z"/>
    </g>
    <g>
      <g>
        <path class="cls-21" d="m255.35,74.48c-.23,1.79,1.04,3.43,2.83,3.66,1.79.23,3.43-1.04,3.66-2.83.23-1.79-1.04-3.43-2.83-3.66-1.79-.23-3.43,1.04-3.66,2.83Z"/>
        <path class="cls-21" d="m272.03,73.31l-13.02-1.66-.83,6.5,13.02,1.66s1.06-6.47.83-6.5Z"/>
        <path class="cls-21" d="m268.37,76.14c-.23,1.79,1.04,3.43,2.83,3.66,1.79.23,3.43-1.04,3.66-2.83.23-1.79-1.04-3.43-2.83-3.66-1.79-.23-3.43,1.04-3.66,2.83Z"/>
      </g>
      <g>
        <circle class="cls-21" cx="211.87" cy="81.34" r="3.27"/>
        <path class="cls-21" d="m198.34,81.12l12.79-2.97,1.48,6.38-12.79,2.97s-1.7-6.33-1.48-6.38Z"/>
        <circle class="cls-22" cx="199.08" cy="84.31" r="3.27"/>
      </g>
      <polygon class="cls-19" points="248.35 75.9 230.85 75.9 233.14 106.37 250.65 106.37 248.35 75.9"/>
      <polygon class="cls-15" points="241.88 76.13 244.16 106.37 250.65 106.37 248.35 75.9 230.85 75.9 230.86 76.13 241.88 76.13"/>
      <g>
        <circle class="cls-5" cx="200.55" cy="41.23" r="10.2"/>
        <circle class="cls-18" cx="200.55" cy="41.23" r="10.2"/>
        <path class="cls-16" d="m203.65,41.23c0-1.31-1.07-2.38-2.38-2.38s-2.38,1.07-2.38,2.38,1.07,2.38,2.38,2.38,2.38-1.07,2.38-2.38Z"/>
        <path class="cls-16" d="m202.71,51.16c-5.48,0-9.93-4.45-9.93-9.93s4.45-9.93,9.93-9.93c.06,0,.12,0,.18,0-.75-.18-1.54-.27-2.34-.27-5.63,0-10.2,4.57-10.2,10.2s4.57,10.2,10.2,10.2c.81,0,1.59-.1,2.34-.27-.06,0-.12,0-.18,0Z"/>
        <polygon class="cls-16" points="232.18 66.12 229.84 66.12 229.84 56.89 200.74 42.28 201.8 40.18 232.18 55.44 232.18 66.12"/>
        <circle class="cls-5" cx="288.84" cy="41.23" r="10.2"/>
        <circle class="cls-18" cx="288.84" cy="41.23" r="10.2"/>
        <path class="cls-16" d="m291.94,41.23c0-1.31-1.07-2.38-2.38-2.38s-2.38,1.07-2.38,2.38,1.07,2.38,2.38,2.38,2.38-1.07,2.38-2.38Z"/>
        <path class="cls-16" d="m291.01,51.16c-5.48,0-9.93-4.45-9.93-9.93s4.45-9.93,9.93-9.93c.06,0,.12,0,.18,0-.75-.18-1.54-.27-2.34-.27-5.63,0-10.2,4.57-10.2,10.2s4.57,10.2,10.2,10.2c.81,0,1.59-.1,2.34-.27-.06,0-.12,0-.18,0Z"/>
        <polygon class="cls-16" points="260.77 66.12 258.43 66.12 258.43 55.44 288.81 40.18 289.87 42.28 260.77 56.89 260.77 66.12"/>
      </g>
      <g>
        <path class="cls-19" d="m252.1,60.07l-13.68,1.69c-3.28.41-6.27,2.08-8.33,4.67l-2.07,2.59c-1.39,1.75-3.29,3.03-5.43,3.67l-13.25,4.09c-1.15.36-1.84,1.54-1.57,2.72l1.11,4.87c.29,1.25,1.54,2.03,2.79,1.73l13.42-3.23c1.93-.29,3.9-.13,5.76.46l12.63,4.02,10.19-1.23-1.58-26.05Z"/>
        <ellipse class="cls-5" cx="253.68" cy="73.03" rx="12.26" ry="13.09"/>
        <ellipse class="cls-7" cx="254.4" cy="73.03" rx="10.17" ry="11.64"/>
        <path class="cls-10" d="m254.4,61.39c-.43,0-.84.04-1.25.1,5.03.71,8.92,5.6,8.92,11.54s-3.89,10.83-8.92,11.54c.41.06.83.1,1.25.1,5.62,0,10.17-5.21,10.17-11.64s-4.55-11.64-10.17-11.64Z"/>
      </g>
    </g>
    <path class="cls-11" d="m156.96,40.91s-16.83.66-19.04,8.11c-2.21,7.44-3.01,33.78,2.78,50.35l13.38.57c8.94.38,17.85-1.4,25.95-5.2h0s-2.94-17.81-.97-25.01c2.2-8.01.67-19.74-1.51-25.13-.52-1.29-1.71-2.27-3.09-2.43-4.81-.55-17.5-1.26-17.5-1.26Z"/>
    <g>
      <g>
        <path class="cls-23" d="m166.02,30.62l17.94-12.48c.3-6.34-3.12-12.74-15.29-14.42-.34-.05-.67-.08-1-.11-8.24-.72-15.33,5.83-15.73,14.09-.08,1.76-.17,3.77-.25,5.74-.14,3.72,3.49,11.06,7.22,11.17l7.1-3.99Z"/>
        <path class="cls-9" d="m183.96,18.14c-.42,2.65-.82,10.29-.82,10.29-1.01,6.03-6.92,10.26-13.21,9.45l.66,3.9-.77,1.13c-.5.74-1.17,1.29-1.93,1.64-1.46.66-3.22.55-4.63-.45l-6.27-3.15v-8.94s.41-2.46.41-2.46c-2.12-.31-3.73-2.14-3.66-4.34.07-2.36,2.04-4.21,4.41-4.14.3,0,.6.05.89.12,1.08-2.2,3.37-3.69,5.98-3.61l18.94.56Z"/>
        <path class="cls-6" d="m157.5,27.53c-1.23-.08-2.2-1.13-2.16-2.38.04-1.28,1.11-2.29,2.39-2.25.12,0,.25.02.37.04-.49,1.17-.91,2.82-.6,4.59Z"/>
        <path class="cls-6" d="m170.59,41.78l-.77,1.13c-.5.74-1.17,1.29-1.93,1.64l-.42-4.14c-5.68.15-8.25-6.87-8.4-7.3,2.56,3.71,10.85,4.77,10.85,4.77l.66,3.9Z"/>
      </g>
      <g>
        <path class="cls-19" d="m154.02,33.84s8.73,1.82,10.02-2.47c1.29-4.29,1.82-13.5,6.55-13.45l15.79.47S185.23-1.68,164.46.11c-16.31,1.41-21.69,22.92-10.45,33.73Z"/>
        <path class="cls-15" d="m186.38,18.39l-15.79-.47c-4.74-.05-5.26,9.17-6.55,13.45-1.3,4.29-10.02,2.47-10.02,2.47-.63-.61-1.21-1.24-1.72-1.91,2.05.2,4.57.11,5.19.13,1.96.06,4.18-.26,4.49-1.31.27-.88.51-2.07.77-3.31,1.03-4.95,2.43-11.73,7.9-11.66l15.43.46c.25,1.32.3,2.15.3,2.15Z"/>
        <g>
          <path class="cls-5" d="m161.26,18.27c-.09,3.04-2.63,5.43-5.67,5.34-3.04-.09-5.43-2.63-5.34-5.67.09-3.04,2.63-5.43,5.67-5.34,3.04.09,5.43,2.63,5.34,5.67Z"/>
          <path class="cls-7" d="m158.61,18.19c-.05,1.58-1.36,2.82-2.94,2.77-1.58-.05-2.82-1.36-2.77-2.94.05-1.58,1.36-2.82,2.94-2.77,1.58.05,2.82,1.36,2.77,2.94Z"/>
        </g>
      </g>
    </g>
    <g>
      <rect class="cls-9" x="184.86" y="81.25" width="13.13" height="6.16" transform="translate(2.59 -5.65) rotate(1.7)"/>
      <g>
        <g>
          <rect class="cls-9" x="192.12" y="79.38" width="13.41" height="10.2" rx="4.15" ry="4.15" transform="translate(2.6 -5.87) rotate(1.7)"/>
          <path class="cls-6" d="m203.45,80.02c.05.28.08.58.07.88l-.06,1.9c-.07,2.28-1.99,4.09-4.27,4.02l-5.11-.15c-.7-.02-1.35-.23-1.92-.56.35,1.88,1.97,3.33,3.95,3.39l5.11.15c2.28.07,4.2-1.74,4.27-4.02l.06-1.9c.05-1.58-.82-2.97-2.1-3.71Z"/>
        </g>
        <g>
          <path class="cls-24" d="m137.37,51.04l-2.89,30.03c-.43,4.5,3.11,8.4,7.63,8.41l47.27-.45.19-10.86-35.59-.32c-1.86-.04-3.29-1.67-3.09-3.53l2.39-21.64c.49-4.44-2.74-8.42-7.19-8.85h0c-4.4-.42-8.31,2.8-8.74,7.2Z"/>
          <path class="cls-25" d="m189.58,78.17l-35.59-.32c-1.86-.04-3.29-1.67-3.09-3.53l2.39-21.64c.49-4.44-2.74-8.42-7.19-8.85-1.38-.13-2.7.09-3.89.6,2.95,1.12,8.08,4.38,6.26,13.29l-1.91,19.35c-.21,2.15,1.47,4.01,3.63,4.03l39.33.24.06-3.18Z"/>
        </g>
      </g>
    </g>
    <g>
      <g>
        <g>
          <g>
            <path class="cls-18" d="m100.44,115.98h24.78c1.26,0,2.28,1.02,2.28,2.28v.12c0,1.26-1.02,2.28-2.28,2.28h-24.78c-.2,0-.37-.16-.37-.37v-3.96c0-.2.16-.37.37-.37Z" transform="translate(-4.53 232.11) rotate(-90)"/>
            <path class="cls-16" d="m113.79,104.61s-.03,0-.05,0v27.42h2.02c.21,0,.38-.16.38-.36v-24.85c0-1.22-1.06-2.22-2.35-2.22Z"/>
          </g>
          <g>
            <path class="cls-18" d="m81.82,118.47h24.78c1.26,0,2.28,1.02,2.28,2.28v.13c0,1.26-1.02,2.28-2.28,2.28h-24.78c-.2,0-.37-.16-.37-.37v-3.96c0-.2.16-.37.37-.37Z" transform="translate(53.34 268.82) rotate(-125.99)"/>
            <path class="cls-16" d="m87.1,109.72s-.02.02-.04.03l16.12,22.19,1.63-1.19c.17-.12.21-.35.09-.51l-14.6-20.1c-.72-.99-2.16-1.18-3.21-.42Z"/>
          </g>
          <g>
            <rect class="cls-7" x="78.54" y="77.23" width="38.8" height="43.31"/>
            <rect class="cls-17" x="117.35" y="77.23" width="16.68" height="43.31"/>
          </g>
          <rect class="cls-7" x="75.66" y="71.75" width="62.48" height="5.57"/>
          <rect class="cls-17" x="75.66" y="75.03" width="62.48" height="2.3"/>
        </g>
        <g>
          <path class="cls-21" d="m200.45,126.45c.07-14.83-11.44-16.64-11.44-16.64h-32.25c-4.08,0-7.38,3.31-7.38,7.38v9.26h51.07Z"/>
          <path class="cls-22" d="m183.93,126.45c.07-14.83-11.44-16.64-11.44-16.64h-32.25c-4.08,0-7.38,3.31-7.38,7.38v9.26h51.07Z"/>
        </g>
        <rect class="cls-22" x="85.54" y="71.81" width="4.29" height="48.74"/>
        <rect class="cls-22" x="104.7" y="71.81" width="4.31" height="48.74"/>
        <rect class="cls-17" x="89.83" y="71.75" width="1.51" height="48.79"/>
        <rect class="cls-17" x="109.05" y="71.75" width="1.51" height="48.79"/>
      </g>
      <g>
        <g>
          <path class="cls-13" d="m87.89,129.36h24.76v23.95h-27.93c-2.9,0-5.25-2.35-5.25-5.25v-10.28c0-4.64,3.77-8.41,8.41-8.41Z"/>
          <path class="cls-8" d="m79.48,148.06v-10.28c0-4.65,3.77-8.41,8.41-8.41h-1.87c-4.65,0-8.41,3.77-8.41,8.41v10.28c0,2.9,2.35,5.25,5.25,5.25h1.87c-2.9,0-5.25-2.35-5.25-5.25Z"/>
        </g>
        <g>
          <path class="cls-19" d="m184.16,126.31s-12.96,5.08-12.04,17.09c.44,5.66.46,11.74.37,16.58-.1,4.99,4.03,9.04,9.02,8.82,12-.53,32.03-1.11,38.67.47,5.44,1.3-.19,17.6-.19,17.6h-65.84l-47.81-31.88-23.56,3.47s5.16-29.84,28.62-32.16c0,0,72.77-.46,72.77,0Z"/>
          <path class="cls-15" d="m188.29,143.4c.43,5.66.46,11.74.36,16.58-.07,3.89,2.42,7.21,5.89,8.38-4.7.11-9.26.28-13.04.44-4.99.22-9.12-3.83-9.02-8.82.1-4.84.07-10.91-.36-16.58-.92-12.01,12.04-17.09,12.04-17.09,0-.12,16.17-.19,16.17,0,0,0-12.96,5.08-12.04,17.09Z"/>
        </g>
      </g>
    </g>
    <g>
      <g>
        <polygon class="cls-9" points="171.31 166.84 169.4 173.61 187.23 177.05 185.05 169.98 186.06 164.72 171.31 166.84"/>
        <path class="cls-25" d="m167.96,173.05l-.19,6.32c-.08,2.64,2,4.84,4.64,4.92l26,.77c1.33.04,2.42-1.01,2.46-2.33.08-3.37-1.15-9.32-10.31-11.39l-19.62-1.03c-1.58-.08-2.92,1.15-2.97,2.73Z"/>
        <path class="cls-20" d="m190.56,171.34l-8.18-.43v.17s.85.04.85.04c9.16,2.07,10.39,8.02,10.31,11.39-.03,1.33-1.13,2.37-2.46,2.33l7.34.22c1.33.04,2.42-1.01,2.46-2.33.08-3.37-1.15-9.32-10.31-11.39Z"/>
      </g>
      <path class="cls-24" d="m203.22,110l-27.09-13.45-35.3,2.56s.51,13.46,11.25,16.31c7.98,2.11,21.81,3.97,29.19,5.79,2.57.63,4.07,3.29,3.3,5.81l-16.03,40.76,18.94.56,19.13-46.18c1.03-4.31.46-9.99-3.39-12.17Z"/>
    </g>
    <g>
      <g>
        <g>
          <path class="cls-4" d="m272.54,110.99v30.66c0,.62-.13,1.22-.38,1.79l-3.2,7.4-3.27-1.83h-.02s3.21-7.04,3.21-7.04c.05-.1.07-.21.07-.32v-30.66c0-7.67-6.3-13.89-14.07-13.89h-22.25c-7.77,0-14.07,6.22-14.07,13.89v33.65c0,.09-.01.18-.05.27l-14.15,37.27s-.03.08-.06.12c-.04.07-.09.13-.15.18-.14.13-.34.21-.55.21h-48.54l1.28-3.6h45.34l13.28-34.97v-33.14c0-9.64,7.93-17.49,17.67-17.49h22.25c9.74,0,17.67,7.85,17.67,17.49Z"/>
          <path class="cls-19" d="m268.94,110.99v30.66c0,.11-.02.22-.07.32l-3.18,7.04-16.79,37.1c-1.66,3.67-5.3,6.03-9.33,6.06l-96.16.41,3.51-9.89h56.69c.21,0,.4-.08.55-.21.06-.06.11-.12.15-.18.02-.04.04-.07.06-.12l14.15-37.27c.04-.09.05-.18.05-.27v-33.65c0-7.67,6.3-13.89,14.07-13.89h22.25c7.77,0,14.07,6.22,14.07,13.89Z"/>
          <g class="cls-3">
            <path class="cls-4" d="m225.84,100.66c-2.86,2.54-4.66,6.23-4.66,10.33v33.65c0,.09-.01.18-.05.27l-13.45,35.44h5.54l13.45-35.44c.04-.09.05-.18.05-.27v-33.65c0-4.1,1.8-7.79,4.66-10.33h-5.54Z"/>
          </g>
          <path class="cls-15" d="m237.57,163.88v-51.16c0-1.6.63-2.9,1.4-2.9h0c.73,0,1.34,1.15,1.4,2.65l1.82,43.38-4.62,8.02Z"/>
          <path class="cls-15" d="m257.89,149.52l-1.66-37.66c-.06-1.5-.67-2.65-1.4-2.65h0c-.78,0-1.4,1.3-1.4,2.9v39.3l4.46-1.89Z"/>
        </g>
        <path class="cls-15" d="m144.34,189.96l-.93,2.62,96.16-.41c2.34-.02,4.54-.82,6.3-2.21h-101.53Z"/>
        <path class="cls-15" d="m266.72,146.73c-10.46.49-37.12,5.74-45.41,45.53l18.26-.09c4.03-.03,7.67-2.39,9.33-6.06l16.79-37.1,1.03-2.28Z"/>
        <g>
          <g>
            <circle class="cls-5" cx="269.48" cy="196.3" r="16.17" transform="translate(-27.86 347.09) rotate(-62.96)"/>
            <polygon class="cls-26" points="272.08 191.2 269 191.2 269 201.39 272.63 201.39 272.08 191.2"/>
            <path class="cls-14" d="m262.78,196.3c0-5.98,4.14-11,9.7-12.35-.96-.23-1.97-.36-3-.36-7.02,0-12.71,5.69-12.71,12.71s5.69,12.71,12.71,12.71c1.03,0,2.04-.13,3-.36-5.57-1.35-9.7-6.36-9.7-12.35Z"/>
            <path class="cls-22" d="m272.71,165.57c-16.97,0-30.72,13.75-30.72,30.72s13.75,30.72,30.72,30.72,30.72-13.75,30.72-30.72-13.75-30.72-30.72-30.72Zm-3.23,46.9c-8.93,0-16.17-7.24-16.17-16.17s7.24-16.17,16.17-16.17,16.17,7.24,16.17,16.17-7.24,16.17-16.17,16.17Z"/>
            <path class="cls-21" d="m272.71,165.57c-10.71,0-20.13,5.48-25.63,13.79,4.91-6.81,12.9-11.25,21.94-11.25,14.93,0,27.03,12.1,27.03,27.03s-12.1,27.03-27.03,27.03-26.71-11.79-27.01-26.45c0,.19-.01.38-.01.58,0,16.97,13.75,30.72,30.72,30.72s30.72-13.75,30.72-30.72-13.75-30.72-30.72-30.72Z"/>
            <path class="cls-12" d="m269.48,180.13c-8.93,0-16.17,7.24-16.17,16.17s7.24,16.17,16.17,16.17,16.17-7.24,16.17-16.17-7.24-16.17-16.17-16.17Zm0,28.88c-7.02,0-12.71-5.69-12.71-12.71s5.69-12.71,12.71-12.71,12.71,5.69,12.71,12.71-5.69,12.71-12.71,12.71Z"/>
            <g>
              <path class="cls-12" d="m271.25,198.04h0c-.9.9-2.38.9-3.28,0l-23.71-23.71c-.9-.9-.9-2.38,0-3.28h0c.9-.9,2.38-.9,3.28,0l23.71,23.71c.9.9.9,2.38,0,3.28Z"/>
              <path class="cls-22" d="m271.25,194.76l-23.71-23.71c-.9-.9-2.38-.9-3.28,0-.17.17-.29.36-.4.56.75-.17,1.57.03,2.16.61l23.71,23.71c.73.73.86,1.85.4,2.72.41-.09.8-.29,1.12-.61.9-.9.9-2.38,0-3.28Z"/>
            </g>
            <g>
              <path class="cls-22" d="m272.08,191.2c-2.82,0-5.1,2.28-5.1,5.1s2.28,5.1,5.1,5.1,5.1-2.28,5.1-5.1-2.28-5.1-5.1-5.1Z"/>
              <path class="cls-12" d="m269.21,191.2c-2.82,0-5.1,2.28-5.1,5.1s2.28,5.1,5.1,5.1,5.1-2.28,5.1-5.1-2.28-5.1-5.1-5.1Z"/>
              <circle class="cls-22" cx="269.21" cy="196.3" r="1.85"/>
            </g>
          </g>
          <g>
            <path class="cls-19" d="m231.67,192.52h7.21c4.72,0,9.12-2.39,11.69-6.36l8.36-12.89h47.59s-.22-.87-.76-2.32c-11.51-30.87-54.77-31.8-68.03-1.65-2.69,6.12-4.87,13.74-6.05,23.21Z"/>
            <path class="cls-15" d="m305.75,170.96c-6.75-18.1-24.41-25.9-40.55-23.18,11.92,2.01,22.92,9.77,27.92,23.18.54,1.44.76,2.32.76,2.32h12.63s-.22-.87-.76-2.32Z"/>
            <path class="cls-4" d="m272.98,147.27c-14.1-.54-28.53,6.75-35.26,22.04-2.69,6.12-4.87,13.74-6.05,23.21h3c1.19-9.47,3.36-17.09,6.05-23.21,6.25-14.2,19.15-21.51,32.26-22.04Z"/>
          </g>
        </g>
      </g>
      <g>
        <g>
          <circle class="cls-5" cx="119.45" cy="196.3" r="16.17" transform="translate(-44.12 34.91) rotate(-14.06)"/>
          <polygon class="cls-26" points="122.05 191.2 118.96 191.2 118.96 201.39 122.6 201.39 122.05 191.2"/>
          <path class="cls-14" d="m112.75,196.3c0-5.98,4.14-11,9.7-12.35-.96-.23-1.97-.36-3-.36-7.02,0-12.71,5.69-12.71,12.71s5.69,12.71,12.71,12.71c1.03,0,2.04-.13,3-.36-5.57-1.35-9.7-6.36-9.7-12.35Z"/>
          <path class="cls-22" d="m122.68,165.57c-16.97,0-30.72,13.75-30.72,30.72s13.75,30.72,30.72,30.72,30.72-13.75,30.72-30.72-13.75-30.72-30.72-30.72Zm-3.23,46.9c-8.93,0-16.17-7.24-16.17-16.17s7.24-16.17,16.17-16.17,16.17,7.24,16.17,16.17-7.24,16.17-16.17,16.17Z"/>
          <path class="cls-21" d="m122.68,165.57c-10.71,0-20.13,5.48-25.63,13.79,4.91-6.81,12.9-11.25,21.94-11.25,14.93,0,27.03,12.1,27.03,27.03s-12.1,27.03-27.03,27.03-26.71-11.79-27.01-26.45c0,.19-.01.38-.01.58,0,16.97,13.75,30.72,30.72,30.72s30.72-13.75,30.72-30.72-13.75-30.72-30.72-30.72Z"/>
          <path class="cls-12" d="m119.44,180.13c-8.93,0-16.17,7.24-16.17,16.17s7.24,16.17,16.17,16.17,16.17-7.24,16.17-16.17-7.24-16.17-16.17-16.17Zm0,28.88c-7.02,0-12.71-5.69-12.71-12.71s5.69-12.71,12.71-12.71,12.71,5.69,12.71,12.71-5.69,12.71-12.71,12.71Z"/>
          <g>
            <path class="cls-22" d="m122.05,191.2c-2.82,0-5.1,2.28-5.1,5.1s2.28,5.1,5.1,5.1,5.1-2.28,5.1-5.1-2.28-5.1-5.1-5.1Z"/>
            <path class="cls-12" d="m119.18,191.2c-2.82,0-5.1,2.28-5.1,5.1s2.28,5.1,5.1,5.1,5.1-2.28,5.1-5.1-2.28-5.1-5.1-5.1Z"/>
            <circle class="cls-22" cx="119.18" cy="196.3" r="1.85"/>
          </g>
        </g>
        <g>
          <rect class="cls-22" x="79.74" y="170.81" width="62.77" height="25.87" rx="7.74" ry="7.74"/>
          <path class="cls-21" d="m134.77,170.81h-7c4.26,0,7.74,3.48,7.74,7.74v10.39c0,4.26-3.48,7.74-7.74,7.74h7c4.26,0,7.74-3.48,7.74-7.74v-10.39c0-4.26-3.48-7.74-7.74-7.74Z"/>
          <rect class="cls-21" x="86.53" y="177.81" width="40.72" height="12.09" rx="1.7" ry="1.7"/>
        </g>
        <g>
          <g>
            <path class="cls-13" d="m80.48,185.67c-4.05,0-7-4.17-6.08-8.51,5.31-24.99,24.55-43.51,47.46-43.51,20.77,0,38.51,15.21,45.61,36.66,2.47,7.46-2.49,15.35-9.69,15.35h-77.3Z"/>
            <path class="cls-8" d="m77.63,177.16c5.18-24.39,23.62-42.6,45.8-43.47-.52-.02-1.05-.04-1.57-.04-22.92,0-42.15,18.51-47.46,43.51-.92,4.34,2.03,8.51,6.08,8.51h3.23c-4.05,0-7-4.17-6.08-8.51Z"/>
            <path class="cls-15" d="m167.47,170.32c-7.1-21.46-24.84-36.66-45.61-36.66-3.26,0-6.45.38-9.54,1.09,16.54,3.84,30.09,17.49,36.07,35.57,2.47,7.46-2.49,15.35-9.69,15.35h19.08c7.2,0,12.16-7.9,9.69-15.35Z"/>
          </g>
          <g>
            <rect class="cls-15" x="97.88" y="152.64" width="31.11" height="4" rx="1.85" ry="1.85"/>
            <rect class="cls-15" x="97.88" y="164.03" width="31.11" height="4" rx="1.85" ry="1.85"/>
            <rect class="cls-15" x="97.88" y="174.51" width="31.11" height="4" rx="1.85" ry="1.85"/>
          </g>
        </g>
      </g>
    </g>
  </g>
</svg>